<svg width="500" height="500" viewBox="0 0 500 500" fill="none" xmlns="http://www.w3.org/2000/svg">
<path d="M115.06 394L123.28 389.25C123.28 389.25 128.17 368.93 126.22 350.65C123.48 324.94 106.56 315.27 100.12 317.49C93.68 319.71 91.83 327.19 102.47 342.49C108.75 351.5 116.47 370.31 115.06 394Z" fill="#D78E86"/>
<g opacity="0.65">
<path d="M115.06 394L123.28 389.25C123.28 389.25 128.17 368.93 126.22 350.65C123.48 324.94 106.56 315.27 100.12 317.49C93.68 319.71 91.83 327.19 102.47 342.49C108.75 351.5 116.47 370.31 115.06 394Z" fill="white"/>
</g>
<path d="M118.46 384H118.39C118.241 383.971 118.109 383.884 118.023 383.759C117.937 383.634 117.903 383.48 117.93 383.33C122.44 359.62 114.15 332.98 103.93 321.89C103.877 321.838 103.834 321.776 103.805 321.707C103.777 321.638 103.762 321.564 103.762 321.49C103.762 321.415 103.777 321.342 103.805 321.273C103.834 321.204 103.877 321.142 103.93 321.09C104.036 320.985 104.18 320.926 104.33 320.926C104.479 320.926 104.623 320.985 104.73 321.09C115.18 332.38 123.62 359.46 119.05 383.51C119.028 383.649 118.956 383.776 118.847 383.866C118.739 383.957 118.601 384.004 118.46 384Z" fill="white"/>
<path d="M95.93 406C94.7 406.62 89.93 403.74 88.93 403.06C87.3703 401.878 86.141 400.314 85.36 398.52C84.4929 396.485 84.2764 394.232 84.74 392.07C84.9936 390.925 85.3278 389.798 85.74 388.7C86.11 387.61 86.49 386.53 86.86 385.44C87.3015 384.393 87.5228 383.266 87.51 382.13C87.34 379.85 85.41 378.13 83.65 376.71C81.71 375.1 79.71 372.99 79.86 370.27C80.1125 368.163 81.0589 366.2 82.55 364.69C83.93 363.11 85.55 361.69 86.81 360.05C87.7981 358.885 88.359 357.417 88.4 355.89C88.3208 354.949 88.052 354.034 87.61 353.2C86.5964 351.456 85.7237 349.633 85 347.75C84.44 345.81 84.65 343.45 86.21 342.16C87.48 341.1 89.3 341.04 90.95 341.23C92.4924 341.499 93.9569 342.103 95.24 343C99.44 345.62 101.65 350.86 106.14 352.94C107.935 353.598 109.768 354.146 111.63 354.58C112.56 354.802 113.433 355.216 114.194 355.794C114.955 356.373 115.587 357.104 116.05 357.94C117.56 361.39 114.23 365.38 115.23 369.01C116.12 372.22 119.13 373.59 120.71 376.52C121.348 377.815 121.558 379.278 121.31 380.7C121.038 383.109 120.326 385.448 119.21 387.6C117.955 389.807 116.569 391.938 115.06 393.98C115.06 393.98 96.12 405.9 95.93 406Z" fill="#D78E86"/>
<g opacity="0.3">
<path d="M95.93 406C94.7 406.62 89.93 403.74 88.93 403.06C87.3703 401.878 86.141 400.314 85.36 398.52C84.4929 396.485 84.2764 394.232 84.74 392.07C84.9936 390.925 85.3278 389.798 85.74 388.7C86.11 387.61 86.49 386.53 86.86 385.44C87.3015 384.393 87.5228 383.266 87.51 382.13C87.34 379.85 85.41 378.13 83.65 376.71C81.71 375.1 79.71 372.99 79.86 370.27C80.1125 368.163 81.0589 366.2 82.55 364.69C83.93 363.11 85.55 361.69 86.81 360.05C87.7981 358.885 88.359 357.417 88.4 355.89C88.3208 354.949 88.052 354.034 87.61 353.2C86.5964 351.456 85.7237 349.633 85 347.75C84.44 345.81 84.65 343.45 86.21 342.16C87.48 341.1 89.3 341.04 90.95 341.23C92.4924 341.499 93.9569 342.103 95.24 343C99.44 345.62 101.65 350.86 106.14 352.94C107.935 353.598 109.768 354.146 111.63 354.58C112.56 354.802 113.433 355.216 114.194 355.794C114.955 356.373 115.587 357.104 116.05 357.94C117.56 361.39 114.23 365.38 115.23 369.01C116.12 372.22 119.13 373.59 120.71 376.52C121.348 377.815 121.558 379.278 121.31 380.7C121.038 383.109 120.326 385.448 119.21 387.6C117.955 389.807 116.569 391.938 115.06 393.98C115.06 393.98 96.12 405.9 95.93 406Z" fill="white"/>
</g>
<path d="M106.27 399.71C106.126 399.697 105.992 399.628 105.899 399.518C105.805 399.407 105.759 399.264 105.77 399.12C107.77 377.8 98.8598 353.7 91.8898 346.47C91.8323 346.421 91.7855 346.361 91.7526 346.293C91.7196 346.226 91.7013 346.152 91.6986 346.077C91.6959 346.001 91.709 345.926 91.7371 345.856C91.7651 345.786 91.8075 345.723 91.8615 345.671C91.9154 345.618 91.9798 345.577 92.0504 345.551C92.1211 345.525 92.1964 345.514 92.2716 345.518C92.3468 345.523 92.4202 345.543 92.487 345.578C92.5539 345.613 92.6128 345.661 92.6598 345.72C99.7798 353.09 108.84 377.59 106.85 399.22C106.835 399.361 106.766 399.49 106.658 399.581C106.55 399.672 106.411 399.718 106.27 399.71Z" fill="white"/>
<path d="M104.16 373.41C104.107 373.42 104.053 373.42 104 373.41C99.0075 371.762 93.8505 370.662 88.62 370.13C88.5489 370.124 88.4799 370.103 88.4167 370.07C88.3536 370.037 88.2976 369.992 88.252 369.937C88.2065 369.882 88.1722 369.819 88.1513 369.751C88.1303 369.683 88.1231 369.611 88.13 369.54C88.1348 369.469 88.1542 369.399 88.187 369.336C88.2198 369.273 88.2653 369.217 88.3206 369.172C88.376 369.127 88.44 369.094 88.5087 369.074C88.5774 369.055 88.6493 369.05 88.72 369.06C94.0435 369.595 99.2919 370.715 104.37 372.4C104.504 372.449 104.612 372.55 104.672 372.679C104.732 372.808 104.738 372.956 104.69 373.09C104.648 373.193 104.573 373.28 104.478 373.337C104.382 373.395 104.271 373.42 104.16 373.41Z" fill="white"/>
<path d="M371.27 391.93L383.79 399.16C383.63 394.69 383.24 388.04 383.85 383.57C387.64 356.19 398.3 347.17 403.37 333.84C408.71 319.84 402.2 315.29 393.74 317.84C386.19 320.09 375.28 331.25 371.84 351.68C369.55 365.25 370 380 371.27 391.93Z" fill="#D78E86"/>
<path opacity="0.65" d="M371.27 391.93L383.79 399.16C383.63 394.69 383.24 388.04 383.85 383.57C387.64 356.19 398.3 347.17 403.37 333.84C408.71 319.84 402.2 315.29 393.74 317.84C386.19 320.09 375.28 331.25 371.84 351.68C369.55 365.25 370 380 371.27 391.93Z" fill="white"/>
<path d="M377.91 395.76L379.16 396.49C374.68 364.57 385.59 336.89 396.36 325.49C396.411 325.439 396.452 325.378 396.48 325.311C396.508 325.244 396.522 325.172 396.522 325.1C396.522 325.027 396.508 324.956 396.48 324.889C396.452 324.822 396.411 324.761 396.36 324.71C396.254 324.611 396.115 324.556 395.97 324.556C395.825 324.556 395.686 324.611 395.58 324.71C384.8 336.14 373.89 364 377.91 395.76Z" fill="white"/>
<path d="M380.27 397.13L387.32 401.2C391.06 390.2 394.91 385.75 399.69 378.49C404.04 371.89 409.11 367.8 411.8 363.15C414.18 359.04 415.97 353.88 412.43 350.76C406.79 345.76 399.43 351.04 394.43 356.76C390 361.65 381.24 374.74 380.27 397.13Z" fill="#D78E86"/>
<path opacity="0.3" d="M380.27 397.13L387.32 401.2C391.06 390.2 394.91 385.75 399.69 378.49C404.04 371.89 409.11 367.8 411.8 363.15C414.18 359.04 415.97 353.88 412.43 350.76C406.79 345.76 399.43 351.04 394.43 356.76C390 361.65 381.24 374.74 380.27 397.13Z" fill="white"/>
<path d="M383.17 398.8L384.17 399.39C387.17 381.94 398.98 361.75 406.35 356.99C406.412 356.95 406.465 356.897 406.507 356.836C406.549 356.775 406.578 356.706 406.593 356.633C406.608 356.561 406.608 356.486 406.594 356.413C406.58 356.341 406.551 356.272 406.51 356.21C406.471 356.148 406.42 356.093 406.36 356.051C406.3 356.008 406.233 355.978 406.161 355.962C406.089 355.947 406.015 355.945 405.943 355.959C405.87 355.972 405.801 356 405.74 356.04C398.13 361 386.31 381.08 383.17 398.8Z" fill="white"/>
<path d="M156.73 450.88C191.507 450.88 219.7 434.606 219.7 414.53C219.7 394.454 191.507 378.18 156.73 378.18C121.952 378.18 93.7598 394.454 93.7598 414.53C93.7598 434.606 121.952 450.88 156.73 450.88Z" fill="#E0E0E0"/>
<path d="M335.39 450.89C368.676 450.89 395.66 435.31 395.66 416.09C395.66 396.871 368.676 381.29 335.39 381.29C302.103 381.29 275.12 396.871 275.12 416.09C275.12 435.31 302.103 450.89 335.39 450.89Z" fill="#E0E0E0"/>
<path d="M173.86 116.42C172.962 116.09 172.016 115.914 171.06 115.9C170.15 115.83 169.86 115.65 169.68 115.45C168.812 114.207 167.548 113.296 166.094 112.865C164.641 112.435 163.084 112.51 161.68 113.08C161.288 111.85 160.446 110.812 159.322 110.176C158.199 109.54 156.876 109.352 155.62 109.65C155.72 106.82 152.11 103.78 148.86 103.09C145.61 102.4 143.04 102.71 141.27 104.76C139.37 101.05 131.92 100 127.89 101.96C125.57 103.09 123.61 104.25 122.65 106.37C122.01 107.685 121.707 109.139 121.77 110.6C120.795 109.904 119.667 109.454 118.481 109.289C117.295 109.123 116.087 109.247 114.96 109.65C112.7 110.52 112.53 112.23 112.41 113.96C111.071 113.568 109.651 113.544 108.3 113.89C106.87 114.31 106.05 115.43 106.25 116.33C105.12 116.27 102.43 117.18 102.74 118.33C103.05 119.48 106.16 119.53 107.3 119.49C108.38 119.401 109.453 119.233 110.51 118.99C111.044 119.19 111.609 119.295 112.18 119.3C114.18 119.3 114.96 118.45 115.27 117.73C116.27 119.73 119.61 121.26 122.01 121.88C126.53 123.03 132.92 122.33 135.7 118.95C136.026 119.585 136.483 120.144 137.04 120.59C138.236 121.554 139.69 122.142 141.22 122.28C143.08 122.46 148.05 122.69 149.45 119.75C150.45 121.75 154.88 122.6 158.25 122.12C159.546 121.924 160.808 121.547 162 121C162.747 120.608 163.471 120.174 164.17 119.7C164.438 119.515 164.751 119.405 165.077 119.382C165.402 119.359 165.728 119.424 166.02 119.57C168.397 120.413 170.992 120.413 173.37 119.57C175.24 118.8 175.63 117.22 173.86 116.42Z" fill="#F0F0F0"/>
<path d="M104.4 166C103.551 165.688 102.654 165.522 101.75 165.51C100.89 165.44 100.62 165.27 100.45 165.09C99.6283 163.906 98.4274 163.037 97.0455 162.628C95.6636 162.219 94.1835 162.294 92.8498 162.84C92.4732 161.679 91.6743 160.701 90.6112 160.101C89.5481 159.501 88.2985 159.322 87.1098 159.6C87.2098 156.92 83.7898 154.05 80.7298 153.4C77.6698 152.75 75.2198 153 73.5398 155C71.7498 151.49 64.6998 150.5 60.8898 152.36C58.6998 153.43 56.8898 154.52 55.8898 156.53C55.2904 157.775 55.0087 159.149 55.0698 160.53C54.1484 159.872 53.081 159.447 51.9594 159.292C50.8377 159.137 49.6952 159.256 48.6298 159.64C46.4898 160.46 46.3298 162.08 46.2198 163.72C44.9526 163.35 43.6095 163.326 42.3298 163.65C40.9798 164.05 40.1998 165.1 40.3898 165.96C39.3198 165.9 36.7798 166.76 37.0698 167.89C37.3598 169.02 40.2998 169.02 41.3898 168.98C42.4009 168.9 43.404 168.739 44.3898 168.5C44.8903 168.695 45.4225 168.797 45.9598 168.8C47.8098 168.8 48.5898 168 48.8898 167.31C49.7898 169.21 52.9998 170.66 55.2698 171.24C59.5398 172.33 65.5798 171.66 68.2098 168.47C68.5353 169.075 68.9934 169.598 69.5498 170C70.6937 170.92 72.0867 171.478 73.5498 171.6C75.2998 171.77 80.0098 171.99 81.3298 169.2C82.2698 171.06 86.4598 171.9 89.6498 171.45C90.8855 171.263 92.0879 170.9 93.2198 170.37C93.9085 169.997 94.5762 169.586 95.2198 169.14C95.4757 168.957 95.7767 168.847 96.0903 168.823C96.404 168.798 96.7184 168.859 96.9998 169C99.2633 169.807 101.736 169.807 104 169C105.7 168.23 106.07 166.74 104.4 166Z" fill="#F5F5F5"/>
<path d="M429.63 61.57C428.782 61.254 427.885 61.0882 426.98 61.08C426.12 61.01 425.85 60.84 425.68 60.65C424.858 59.4662 423.657 58.5986 422.274 58.1912C420.892 57.7838 419.412 57.861 418.08 58.41C417.705 57.247 416.907 56.2673 415.844 55.6653C414.781 55.0633 413.53 54.8829 412.34 55.16C412.44 52.49 409.02 49.62 405.96 48.97C402.9 48.32 400.45 48.6 398.77 50.54C397 47 389.93 46 386.12 47.9C383.93 48.96 382.07 50.06 381.12 52.07C380.519 53.3148 380.237 54.6894 380.3 56.07C379.379 55.4102 378.312 54.9836 377.191 54.8269C376.069 54.6701 374.926 54.7879 373.86 55.17C371.72 56 371.55 57.61 371.45 59.25C370.182 58.8854 368.84 58.8613 367.56 59.18C366.21 59.58 365.43 60.64 365.62 61.49C364.55 61.49 362.01 62.3 362.3 63.42C362.63 64.69 365.53 64.56 366.61 64.52C367.62 64.4351 368.623 64.2746 369.61 64.04C370.112 64.2307 370.643 64.3322 371.18 64.34C373.03 64.34 373.81 63.54 374.11 62.85C375.01 64.75 378.22 66.19 380.49 66.77C384.76 67.87 390.8 67.2 393.43 64.01C393.735 64.6129 394.169 65.1418 394.7 65.56C395.844 66.4804 397.237 67.0376 398.7 67.16C400.45 67.32 405.16 67.55 406.48 64.76C407.42 66.61 411.61 67.46 414.8 67.01C416.035 66.8193 417.236 66.4557 418.37 65.93C419.073 65.5549 419.758 65.1444 420.42 64.7C420.671 64.5237 420.966 64.4194 421.273 64.3982C421.58 64.3771 421.886 64.44 422.16 64.58C424.423 65.3897 426.897 65.3897 429.16 64.58C430.93 63.82 431.3 62.32 429.63 61.57Z" fill="#F5F5F5"/>
<path d="M372.7 370.76C371.276 365.459 369.264 360.334 366.7 355.48C364.241 350.83 361.27 346.469 357.84 342.48C354.72 338.786 351.002 335.643 346.84 333.18C343.508 331.091 339.69 329.905 335.76 329.74C332.581 329.635 329.458 330.608 326.9 332.5C324.43 334.36 302 346.44 299.54 348.3C296.832 350.506 294.812 353.442 293.72 356.76C292.228 361.032 291.51 365.536 291.6 370.06C291.616 375.419 292.329 380.754 293.72 385.93C295.093 391.156 297.049 396.211 299.55 401C301.96 405.64 304.936 409.963 308.41 413.87C311.585 417.523 315.326 420.643 319.49 423.11C322.803 425.186 326.587 426.39 330.49 426.61C333.654 426.744 336.772 425.819 339.35 423.98C341.87 422.15 364.19 409.98 366.71 408.18C369.451 406.057 371.532 403.2 372.71 399.94C374.293 395.669 375.043 391.133 374.92 386.58C374.886 381.231 374.14 375.911 372.7 370.76Z" fill="#D78E86"/>
<path opacity="0.4" d="M372.7 370.76C371.276 365.459 369.264 360.334 366.7 355.48C364.241 350.83 361.27 346.469 357.84 342.48C354.72 338.786 351.002 335.643 346.84 333.18C343.508 331.091 339.69 329.905 335.76 329.74C332.581 329.635 329.458 330.608 326.9 332.5C324.43 334.36 302 346.44 299.54 348.3C296.832 350.506 294.812 353.442 293.72 356.76C292.228 361.032 291.51 365.536 291.6 370.06C291.616 375.419 292.329 380.754 293.72 385.93C295.093 391.156 297.049 396.211 299.55 401C301.96 405.64 304.936 409.963 308.41 413.87C311.585 417.523 315.326 420.643 319.49 423.11C322.803 425.186 326.587 426.39 330.49 426.61C333.654 426.744 336.772 425.819 339.35 423.98C341.87 422.15 364.19 409.98 366.71 408.18C369.451 406.057 371.532 403.2 372.71 399.94C374.293 395.669 375.043 391.133 374.92 386.58C374.886 381.231 374.14 375.911 372.7 370.76Z" fill="white"/>
<path d="M421.26 176.37C417.867 164.181 412.966 152.464 406.67 141.49C400.424 130.604 392.827 120.551 384.06 111.57C375.402 102.653 365.552 94.9773 354.79 88.76C347.862 84.6378 340.479 81.3324 332.79 78.91C326.702 76.9996 320.378 75.9462 314 75.78C308.527 75.6743 303.072 76.4233 297.83 78C293.017 79.475 288.398 81.5195 284.07 84.0899L256.71 99.89L268.71 132.18C270.71 138.24 273.913 142.547 278.32 145.1C279.265 145.634 280.314 145.959 281.395 146.054C282.477 146.148 283.566 146.011 284.59 145.65C287.414 144.841 290.282 144.197 293.18 143.72C297.29 143.133 301.467 143.217 305.55 143.97C310.41 144.73 316.35 147.133 323.37 151.18C328.282 154.034 332.784 157.543 336.75 161.61C340.858 165.777 344.425 170.444 347.37 175.5C350.32 180.553 352.644 185.946 354.29 191.56C355.953 197.179 356.791 203.01 356.78 208.87C356.78 218.057 355.337 225.143 352.45 230.13C351.347 232.002 350.089 233.778 348.69 235.44C346.306 236.516 343.997 237.753 341.78 239.14C339.09 240.84 318.41 252.41 314.42 254.95C310.357 257.532 307.043 261.136 304.81 265.4C302.423 269.84 301.593 276.13 302.32 284.27L305.46 326.21L336.66 344.21L364 328.46L368.25 294.96C368.52 292.494 369.296 290.111 370.53 287.96L371.44 287.56C372.955 286.9 374.422 286.135 375.83 285.27C379 283.34 401.21 270.63 402.37 269.96C406.025 267.819 409.335 265.139 412.19 262.01C416.25 257.63 419.637 251.667 422.35 244.12C425.063 236.573 426.413 226.573 426.4 214.12C426.42 201.361 424.691 188.659 421.26 176.37Z" fill="#D78E86"/>
<path opacity="0.4" d="M421.26 176.37C417.867 164.181 412.966 152.464 406.67 141.49C400.424 130.604 392.827 120.551 384.06 111.57C375.402 102.653 365.552 94.9773 354.79 88.76C347.862 84.6378 340.479 81.3324 332.79 78.91C326.702 76.9996 320.378 75.9462 314 75.78C308.527 75.6743 303.072 76.4233 297.83 78C293.017 79.475 288.398 81.5195 284.07 84.0899L256.71 99.89L268.71 132.18C270.71 138.24 273.913 142.547 278.32 145.1C279.265 145.634 280.314 145.959 281.395 146.054C282.477 146.148 283.566 146.011 284.59 145.65C287.414 144.841 290.282 144.197 293.18 143.72C297.29 143.133 301.467 143.217 305.55 143.97C310.41 144.73 316.35 147.133 323.37 151.18C328.282 154.034 332.784 157.543 336.75 161.61C340.858 165.777 344.425 170.444 347.37 175.5C350.32 180.553 352.644 185.946 354.29 191.56C355.953 197.179 356.791 203.01 356.78 208.87C356.78 218.057 355.337 225.143 352.45 230.13C351.347 232.002 350.089 233.778 348.69 235.44C346.306 236.516 343.997 237.753 341.78 239.14C339.09 240.84 318.41 252.41 314.42 254.95C310.357 257.532 307.043 261.136 304.81 265.4C302.423 269.84 301.593 276.13 302.32 284.27L305.46 326.21L336.66 344.21L364 328.46L368.25 294.96C368.52 292.494 369.296 290.111 370.53 287.96L371.44 287.56C372.955 286.9 374.422 286.135 375.83 285.27C379 283.34 401.21 270.63 402.37 269.96C406.025 267.819 409.335 265.139 412.19 262.01C416.25 257.63 419.637 251.667 422.35 244.12C425.063 236.573 426.413 226.573 426.4 214.12C426.42 201.361 424.691 188.659 421.26 176.37Z" fill="white"/>
<path d="M339.34 371.29C336.881 366.64 333.909 362.28 330.48 358.29C327.36 354.596 323.642 351.453 319.48 348.99C316.148 346.901 312.33 345.715 308.4 345.55C305.22 345.445 302.098 346.418 299.54 348.31C296.832 350.516 294.812 353.452 293.72 356.77C292.228 361.042 291.51 365.546 291.6 370.07C291.616 375.429 292.329 380.764 293.72 385.94C295.094 391.162 297.05 396.214 299.55 401C301.96 405.64 304.936 409.963 308.41 413.87C311.585 417.523 315.326 420.643 319.49 423.11C322.803 425.186 326.587 426.39 330.49 426.61C333.654 426.744 336.772 425.819 339.35 423.98C342.091 421.857 344.172 419 345.35 415.74C346.935 411.469 347.685 406.934 347.56 402.38C347.529 397.035 346.785 391.719 345.35 386.57C343.926 381.268 341.91 376.142 339.34 371.29Z" fill="#FAFAFA"/>
<path d="M308.3 348.33H308.39C311.838 348.498 315.183 349.556 318.1 351.4C321.986 353.706 325.457 356.647 328.37 360.1C331.665 363.934 334.523 368.123 336.89 372.59C339.352 377.261 341.287 382.191 342.66 387.29C344.025 392.202 344.738 397.272 344.78 402.37C344.9 406.569 344.222 410.754 342.78 414.7C341.794 417.452 340.063 419.875 337.78 421.7C335.776 423.131 333.362 423.871 330.9 423.81H330.6C327.17 423.581 323.85 422.502 320.94 420.67C317.017 418.356 313.489 415.429 310.49 412C307.169 408.266 304.317 404.138 302 399.71C299.601 395.108 297.726 390.251 296.41 385.23C295.089 380.285 294.416 375.189 294.41 370.07C294.321 365.877 294.978 361.702 296.35 357.74C297.271 354.925 298.966 352.426 301.24 350.53C303.286 349.023 305.78 348.248 308.32 348.33M308.32 345.55C305.177 345.467 302.097 346.439 299.57 348.31C296.861 350.516 294.842 353.452 293.75 356.77C292.257 361.042 291.539 365.546 291.63 370.07C291.646 375.429 292.358 380.764 293.75 385.94C295.114 391.161 297.06 396.213 299.55 401C301.96 405.64 304.936 409.963 308.41 413.87C311.585 417.523 315.326 420.643 319.49 423.11C322.803 425.186 326.587 426.39 330.49 426.61H330.85C333.894 426.671 336.876 425.745 339.35 423.97C342.091 421.847 344.171 418.99 345.35 415.73C346.935 411.459 347.685 406.924 347.56 402.37C347.528 397.025 346.785 391.709 345.35 386.56C343.928 381.261 341.915 376.139 339.35 371.29C336.891 366.64 333.919 362.28 330.49 358.29C327.37 354.596 323.651 351.453 319.49 348.99C316.158 346.901 312.34 345.715 308.41 345.55H308.32Z" fill="#D78E86"/>
<path d="M393.9 192.17C390.507 179.981 385.606 168.264 379.31 157.29C373.068 146.402 365.47 136.348 356.7 127.37C348.037 118.459 338.188 110.784 327.43 104.56C320.502 100.438 313.119 97.1325 305.43 94.71C299.326 92.798 292.985 91.7478 286.59 91.59C281.123 91.4928 275.674 92.2486 270.44 93.83C265.629 95.3093 261.01 97.3535 256.68 99.92L268.68 132.21C270.68 138.27 273.884 142.577 278.29 145.13C279.236 145.664 280.284 145.989 281.366 146.084C282.447 146.178 283.536 146.041 284.56 145.68C287.384 144.871 290.252 144.227 293.15 143.75C297.26 143.163 301.438 143.247 305.52 144C310.38 144.76 316.32 147.163 323.34 151.21C328.252 154.064 332.754 157.573 336.72 161.64C340.828 165.807 344.396 170.474 347.34 175.53C350.29 180.583 352.614 185.976 354.26 191.59C355.923 197.209 356.762 203.04 356.75 208.9C356.75 218.087 355.307 225.173 352.42 230.16C349.782 234.857 346.084 238.874 341.62 241.89C337.315 244.737 332.66 247.016 327.77 248.67C323.083 250.239 318.601 252.364 314.42 255C310.357 257.582 307.044 261.186 304.81 265.45C302.424 269.89 301.594 276.18 302.32 284.32L305.46 326.26L336.66 344.26L340.91 310.76C341.53 305.873 343.407 302.24 346.54 299.86C349.998 297.306 353.747 295.175 357.71 293.51C362.017 291.65 366.6 289.65 371.46 287.51C376.554 285.223 381.117 281.903 384.86 277.76C388.913 273.38 392.297 267.417 395.01 259.87C397.724 252.323 399.074 242.323 399.06 229.87C399.068 217.127 397.332 204.442 393.9 192.17Z" fill="#FAFAFA"/>
<path d="M286.08 94.36H286.6C292.73 94.5178 298.809 95.5275 304.66 97.36C312.121 99.741 319.282 102.976 326 107C336.537 113.096 346.184 120.613 354.67 129.34C363.266 138.16 370.721 148.023 376.86 158.7C383.034 169.48 387.848 180.985 391.19 192.95C394.547 204.997 396.25 217.444 396.25 229.95C396.25 242.05 394.94 251.84 392.35 259.04C389.76 266.24 386.56 271.9 382.78 275.98C379.302 279.811 375.071 282.882 370.35 285C365.497 287.12 360.917 289.12 356.61 291C352.445 292.757 348.501 294.999 344.86 297.68C341.12 300.51 338.86 304.81 338.15 310.45L334.43 339.8L308.12 324.61L305.12 284.09C304.43 276.55 305.12 270.73 307.29 266.79C309.304 262.951 312.281 259.701 315.93 257.36C319.943 254.864 324.236 252.85 328.72 251.36C333.834 249.627 338.704 247.244 343.21 244.27C348.033 241.016 352.029 236.681 354.88 231.61C358.05 226.15 359.59 218.74 359.59 208.96C359.606 202.813 358.734 196.697 357 190.8C355.29 184.973 352.879 179.376 349.82 174.13C346.767 168.879 343.072 164.028 338.82 159.69C334.663 155.449 329.954 151.786 324.82 148.8C317.54 144.6 311.22 142.06 306.04 141.25C303.414 140.828 300.76 140.604 298.1 140.58C296.311 140.573 294.525 140.716 292.76 141.01C289.754 141.506 286.78 142.173 283.85 143.01C283.245 143.2 282.615 143.301 281.98 143.31C281.201 143.316 280.434 143.112 279.76 142.72C275.91 140.49 273.18 136.77 271.41 131.34V131.28L260.23 101.2C263.788 99.2861 267.522 97.7188 271.38 96.52C276.176 95.0765 281.162 94.3619 286.17 94.4M286.17 91.62C280.883 91.5775 275.62 92.3361 270.56 93.87C265.749 95.3493 261.13 97.3935 256.8 99.96L268.8 132.25C270.8 138.31 274.004 142.617 278.41 145.17C279.498 145.823 280.742 146.169 282.01 146.17C282.916 146.161 283.816 146.02 284.68 145.75C287.504 144.941 290.372 144.297 293.27 143.82C294.876 143.55 296.502 143.419 298.13 143.43C300.646 143.449 303.157 143.663 305.64 144.07C310.5 144.83 316.44 147.233 323.46 151.28C328.373 154.134 332.874 157.643 336.84 161.71C340.948 165.877 344.516 170.544 347.46 175.6C350.41 180.653 352.734 186.046 354.38 191.66C356.043 197.279 356.882 203.11 356.87 208.97C356.87 218.157 355.427 225.243 352.54 230.23C349.902 234.927 346.204 238.944 341.74 241.96C337.435 244.807 332.78 247.086 327.89 248.74C323.165 250.278 318.642 252.38 314.42 255C310.358 257.582 307.044 261.186 304.81 265.45C302.424 269.89 301.594 276.18 302.32 284.32L305.46 326.26L336.66 344.26L340.91 310.76C341.53 305.873 343.407 302.24 346.54 299.86C349.998 297.306 353.748 295.175 357.71 293.51C362.017 291.65 366.6 289.65 371.46 287.51C376.554 285.223 381.117 281.903 384.86 277.76C388.914 273.38 392.297 267.417 395.01 259.87C397.724 252.323 399.074 242.323 399.06 229.87C399.068 217.127 397.332 204.442 393.9 192.17C390.508 179.981 385.606 168.264 379.31 157.29C373.068 146.402 365.471 136.348 356.7 127.37C348.037 118.459 338.188 110.784 327.43 104.56C320.502 100.438 313.12 97.1325 305.43 94.71C299.326 92.798 292.985 91.7478 286.59 91.59L286.17 91.62Z" fill="#D78E86"/>
<path d="M239.55 206C238.94 205.65 238.03 205.92 237.04 206.42C237.453 206.115 237.754 205.683 237.9 205.19C237.9 204.27 237.36 203.77 235.55 204.59C233.74 205.41 229.2 207.69 225.55 207.67C224.9 207.67 223.6 207.83 223.06 207.4C222.969 207.333 222.899 207.243 222.857 207.139C222.814 207.035 222.801 206.921 222.82 206.81C222.9 206.28 223.55 205.69 223.82 205.39C224.257 204.99 224.664 204.559 225.04 204.1C225.484 203.61 225.824 203.035 226.04 202.41C226.15 202.097 226.189 201.763 226.155 201.432C226.12 201.102 226.013 200.784 225.84 200.5C225.64 200.21 225.31 199.97 224.99 200.21C223.73 201.15 222.43 202.05 221.15 202.99C219.893 203.836 218.712 204.79 217.62 205.84C216.43 207.1 215.47 208.84 213.74 210.58C211.359 212.912 208.726 214.972 205.89 216.72L197.43 222.26C197.43 222.26 188.83 208.57 185.48 203.26C180.12 194.76 177.36 192.7 171.91 192.26V215.37C171.91 215.37 180.12 227.12 184.46 232.7C189.74 239.48 192.72 240.96 194.83 240.92C201.45 240.7 207.05 232.73 217.36 221.28C218.109 220.427 219.032 219.743 220.067 219.274C221.101 218.805 222.224 218.561 223.36 218.56C224.59 218.56 225.97 218.47 226.78 218.44C228.026 218.325 229.261 218.104 230.47 217.78C232.47 217.24 232.47 217.39 235.39 215.44C235.75 215.2 237.2 214.11 237.11 213.68C237.075 213.516 236.984 213.369 236.852 213.265C236.721 213.161 236.557 213.106 236.39 213.11C235.704 213.187 235.031 213.355 234.39 213.61C235.799 212.945 237.034 211.963 238 210.74C238.151 210.509 238.244 210.245 238.27 209.97C238.27 209.75 238.17 209.1 237.82 208.97L238.91 207.88C239.45 207.41 240.33 206.4 239.55 206Z" fill="#FFA8A7"/>
<path d="M234.52 213.55C233.62 213.911 232.694 214.202 231.75 214.42C230.81 214.67 229.85 214.8 228.89 215.05C229.878 215.087 230.866 214.993 231.83 214.77C232.801 214.553 233.717 214.138 234.52 213.55Z" fill="#F28F8F"/>
<path d="M217.13 214.17C217.155 213.981 217.205 213.796 217.28 213.62C217.432 213.282 217.634 212.968 217.88 212.69C218.649 211.796 219.726 211.225 220.897 211.09C222.068 210.954 223.247 211.265 224.2 211.96C224.2 211.96 224.26 212.14 224.2 212.12C222.81 211.57 221.272 211.52 219.85 211.98C218.682 212.556 217.786 213.564 217.35 214.79C217.35 214.9 217.19 214.86 217.18 214.79C217.131 214.587 217.114 214.378 217.13 214.17Z" fill="#F28F8F"/>
<path d="M228 209.88C229.558 209.484 231.085 208.976 232.57 208.36C233.99 207.82 235.38 207.17 236.76 206.54C236.76 206.54 236.76 206.54 236.76 206.59C235.398 207.518 233.922 208.267 232.37 208.82C230.944 209.309 229.478 209.673 227.99 209.91L228 209.88Z" fill="#F28F8F"/>
<path d="M227.81 212.57C229.367 212.177 230.895 211.672 232.38 211.06C232.95 210.84 233.51 210.6 234.07 210.36C234.63 210.137 235.178 209.884 235.71 209.6L236.19 209.33C236.384 209.199 236.592 209.088 236.81 209C237.041 208.918 237.285 208.881 237.53 208.89C237.53 208.89 237.58 208.89 237.53 208.89C237.223 208.937 236.928 209.042 236.66 209.2C236.481 209.301 236.307 209.411 236.14 209.53C235.99 209.64 235.84 209.72 235.68 209.82C235.187 210.119 234.68 210.392 234.16 210.64C233.51 210.96 232.84 211.23 232.16 211.49C230.732 211.971 229.267 212.332 227.78 212.57C227.78 212.57 227.8 212.57 227.81 212.57Z" fill="#F28F8F"/>
<path d="M197.54 222.22C195.835 223.166 194.385 224.51 193.314 226.138C192.243 227.767 191.583 229.631 191.39 231.57C190.89 227.7 191.22 223.67 196.63 220.77L197.54 222.22Z" fill="#F28F8F"/>
<path d="M161.75 282.08C161.75 282.08 161.8 281.98 161.83 281.94L216.45 195.56C217.18 194.3 218.73 193.56 220.93 193.56C223.332 193.727 225.661 194.46 227.726 195.699C229.79 196.938 231.533 198.648 232.81 200.69C233.9 202.63 233.99 204.37 233.26 205.63L185.26 295.99C185.235 296.035 185.209 296.078 185.18 296.12C185.13 296.2 185.1 296.29 185.05 296.37C184.157 297.923 182.963 299.282 181.539 300.368C180.115 301.454 178.488 302.245 176.754 302.695C175.02 303.145 173.214 303.244 171.441 302.988C169.668 302.731 167.965 302.123 166.43 301.2C163.307 299.313 161.05 296.275 160.143 292.741C159.236 289.207 159.752 285.458 161.58 282.3C161.65 282.23 161.71 282.16 161.75 282.08Z" fill="#455A64"/>
<path d="M232.82 200.69C234.99 204.57 233.18 207.69 228.82 207.62C226.417 207.454 224.087 206.723 222.021 205.486C219.955 204.248 218.21 202.54 216.93 200.5C214.76 196.62 216.56 193.5 220.93 193.56C223.333 193.728 225.663 194.461 227.729 195.7C229.796 196.939 231.54 198.649 232.82 200.69Z" fill="#263238"/>
<path d="M179.66 288.51L224.59 206.75C225.93 207.278 227.351 207.572 228.79 207.62C230.97 207.62 232.51 206.91 233.25 205.62L185.25 295.96C185.226 296.005 185.199 296.048 185.17 296.09C185.12 296.17 185.09 296.26 185.04 296.34C184.147 297.893 182.954 299.252 181.529 300.338C180.105 301.424 178.478 302.215 176.744 302.665C175.01 303.115 173.204 303.214 171.431 302.958C169.659 302.701 167.955 302.093 166.42 301.17C170.65 302.44 175.27 296.57 179.66 288.51Z" fill="#37474F"/>
<path d="M238.34 169C239.792 169.101 241.199 169.545 242.447 170.294C243.695 171.043 244.748 172.076 245.52 173.31C245.827 173.741 246.015 174.245 246.064 174.772C246.113 175.299 246.022 175.83 245.8 176.31L229.94 203.65C229.639 204.076 229.228 204.413 228.75 204.624C228.273 204.835 227.748 204.913 227.23 204.85C225.779 204.749 224.373 204.307 223.125 203.56C221.878 202.812 220.824 201.781 220.05 200.55C219.744 200.118 219.559 199.613 219.511 199.086C219.464 198.56 219.556 198.029 219.78 197.55L235.63 170.21C235.931 169.783 236.341 169.445 236.818 169.232C237.295 169.019 237.821 168.939 238.34 169Z" fill="#E0E0E0"/>
<path opacity="0.25" d="M236.44 192.43L241.44 183.8C238.366 181.119 235.441 178.272 232.68 175.27L227.55 184.13C230.37 187.047 233.337 189.817 236.44 192.43Z" fill="black"/>
<path d="M193.06 91.45C193.16 130.97 221.06 178.97 255.31 198.64C265.31 204.36 274.68 207.06 283.01 207.04C288.661 207.104 294.228 205.665 299.14 202.87L319.09 191.28C330.3 184.78 337.21 170.88 337.16 151.12C337.06 111.59 309.16 63.6 274.91 43.92C257.77 34.09 242.28 33.19 231.08 39.69L211.08 51.3C199.91 57.81 193 71.7 193.06 91.45ZM222.87 79.84C222.87 70.47 224.56 62.73 227.77 56.97C234.44 57.06 242.13 59.5 250.05 64.05C265.15 72.72 279.47 87.84 290.38 106.61C301.29 125.38 307.31 145.31 307.38 162.73C307.38 172.11 305.69 179.85 302.47 185.6C295.8 185.5 288.12 183.05 280.2 178.52C265.1 169.84 250.78 154.73 239.87 135.95C228.96 117.17 222.91 97.25 222.87 79.84Z" fill="#D78E86"/>
<path opacity="0.1" d="M307.66 73.4599L279.12 90C283.264 95.2506 287.027 100.791 290.38 106.58C291.05 107.74 291.7 108.9 292.38 110.07L320.85 93.5299C316.997 86.4977 312.586 79.7861 307.66 73.4599ZM263.6 73.73C266.623 76.3404 269.503 79.111 272.23 82.0299L300.89 65.3899C298.223 62.4099 295.43 59.5966 292.51 56.95L263.6 73.73Z" fill="white"/>
<path opacity="0.25" d="M299.22 202.82L319.09 191.28C330.3 184.78 337.21 170.88 337.16 151.12C337.16 150.36 337.16 149.6 337.1 148.83L317.16 160.42C317.16 161.19 317.16 161.94 317.16 162.7C317.24 182.41 310.37 196.3 299.22 202.82Z" fill="black"/>
<path d="M202.91 91.42C202.91 108.84 208.98 128.78 219.91 147.55C230.84 166.32 245.14 181.44 260.24 190.1C268.35 194.76 276.24 197.21 283.01 197.19C291.66 197.19 298.32 193.06 302.47 185.6C295.8 185.5 288.12 183.05 280.2 178.52C265.1 169.84 250.78 154.73 239.87 135.95C228.96 117.17 222.94 97.25 222.87 79.84C222.87 70.47 224.56 62.73 227.77 56.97H227.27C212 57 202.85 69.89 202.91 91.42Z" fill="#D78E86"/>
<path opacity="0.25" d="M202.91 91.42C202.91 108.84 208.98 128.78 219.91 147.55C230.84 166.32 245.14 181.44 260.24 190.1C268.35 194.76 276.24 197.21 283.01 197.19C291.66 197.19 298.32 193.06 302.47 185.6C295.8 185.5 288.12 183.05 280.2 178.52C265.1 169.84 250.78 154.73 239.87 135.95C228.96 117.17 222.94 97.25 222.87 79.84C222.87 70.47 224.56 62.73 227.77 56.97H227.27C212 57 202.85 69.89 202.91 91.42Z" fill="black"/>
<path opacity="0.3" d="M212.2 86.06C212.2 103.47 218.27 123.41 229.2 142.18C240.13 160.95 254.42 176.07 269.53 184.73C277.64 189.39 285.53 191.84 292.3 191.82C294.358 191.832 296.409 191.573 298.4 191.05C299.996 189.428 301.362 187.594 302.46 185.6C305.68 179.85 307.39 172.11 307.37 162.73C307.37 145.31 301.3 125.39 290.37 106.61C279.44 87.83 265.14 72.72 250.04 64.05C242.12 59.5 234.43 57.05 227.76 56.97H227.26C225.191 56.9648 223.13 57.2304 221.13 57.76C215.35 63.57 212.17 73.29 212.2 86.06Z" fill="white"/>
<path d="M193.06 91.45C193.16 130.97 221.06 178.97 255.31 198.64C289.56 218.31 317.31 202.23 317.19 162.71C317.07 123.19 289.19 75.19 254.95 55.51C220.71 35.83 193 51.93 193.06 91.45ZM219.88 147.55C208.98 128.78 202.95 108.84 202.88 91.42C202.85 69.89 212 57 227.27 57H227.77C234.44 57.09 242.13 59.53 250.05 64.08C265.15 72.75 279.47 87.87 290.38 106.64C301.29 125.41 307.31 145.34 307.38 162.76C307.38 172.14 305.69 179.88 302.47 185.63C298.32 193.09 291.66 197.2 283.01 197.22C276.22 197.22 268.35 194.79 260.24 190.13C245.11 181.44 230.78 166.32 219.88 147.55Z" fill="#D78E86"/>
<g opacity="0.3">
<path d="M193.06 91.45C193.16 130.97 221.06 178.97 255.31 198.64C289.56 218.31 317.31 202.23 317.19 162.71C317.07 123.19 289.19 75.19 254.95 55.51C220.71 35.83 193 51.93 193.06 91.45ZM219.88 147.55C208.98 128.78 202.95 108.84 202.88 91.42C202.85 69.89 212 57 227.27 57H227.77C234.44 57.09 242.13 59.53 250.05 64.08C265.15 72.75 279.47 87.87 290.38 106.64C301.29 125.41 307.31 145.34 307.38 162.76C307.38 172.14 305.69 179.88 302.47 185.63C298.32 193.09 291.66 197.2 283.01 197.22C276.22 197.22 268.35 194.79 260.24 190.13C245.11 181.44 230.78 166.32 219.88 147.55Z" fill="white"/>
</g>
<g opacity="0.3">
<path d="M302 107.34C307.742 118.464 312.005 130.291 314.68 142.52C315.969 148.63 316.689 154.847 316.83 161.09C317.007 167.325 316.334 173.556 314.83 179.61C313.398 185.672 310.604 191.329 306.66 196.15C302.62 200.922 297.179 204.298 291.11 205.8C285.02 207.211 278.68 207.128 272.63 205.56C266.55 204.081 260.709 201.751 255.28 198.64C260.663 201.869 266.478 204.316 272.55 205.91C278.655 207.541 285.065 207.668 291.23 206.28C297.416 204.784 302.975 201.38 307.12 196.55C311.17 191.678 314.053 185.946 315.55 179.79C317.018 173.667 317.65 167.373 317.43 161.08C317.252 154.803 316.489 148.555 315.15 142.42C313.805 136.3 312.024 130.285 309.82 124.42C307.566 118.572 304.954 112.867 302 107.34Z" fill="white"/>
</g>
<g opacity="0.3">
<path d="M227.27 57C224.161 56.9542 221.074 57.5287 218.19 58.69C215.301 59.9072 212.721 61.7557 210.64 64.1C208.582 66.475 206.939 69.1795 205.78 72.1C204.592 74.9939 203.737 78.0132 203.23 81.1C202.256 87.2656 202.094 93.5324 202.75 99.74C203.353 105.941 204.525 112.073 206.25 118.06C207.945 124.054 210.102 129.908 212.7 135.57C215.268 141.239 218.204 146.734 221.49 152.02C227.999 162.674 236.03 172.319 245.33 180.65C250.033 184.781 255.154 188.411 260.61 191.48C266.073 194.641 272.063 196.789 278.29 197.82C281.452 198.307 284.672 198.263 287.82 197.69C290.996 197.071 293.991 195.741 296.58 193.8C297.874 192.844 299.052 191.74 300.09 190.51C301.134 189.303 302.059 187.997 302.85 186.61C304.419 183.853 305.597 180.891 306.35 177.81C307.797 171.713 308.309 165.431 307.87 159.18C307.492 152.966 306.511 146.804 304.94 140.78C303.369 134.772 301.336 128.895 298.86 123.2C296.412 117.51 293.579 111.994 290.38 106.69C296.471 117.424 301.054 128.945 304 140.93C305.458 146.908 306.339 153.013 306.63 159.16C306.971 165.276 306.384 171.409 304.89 177.35C304.124 180.275 302.96 183.082 301.43 185.69C299.944 188.287 297.947 190.556 295.56 192.36C293.17 194.13 290.412 195.337 287.49 195.89C284.535 196.413 281.513 196.437 278.55 195.96C272.558 194.927 266.8 192.827 261.55 189.76C256.228 186.727 251.235 183.151 246.65 179.09C237.44 170.929 229.473 161.465 223 151C216.436 140.582 211.287 129.336 207.69 117.56C205.904 111.686 204.659 105.661 203.97 99.56C203.243 93.4573 203.306 87.2863 204.16 81.2C204.587 78.1655 205.359 75.1897 206.46 72.33C207.514 69.4491 209.049 66.7678 211 64.4C212.99 62.0598 215.472 60.1885 218.27 58.92C221.113 57.6895 224.172 57.0369 227.27 57Z" fill="white"/>
</g>
<path d="M166.68 387.19L165.27 373L182.93 371.3C182.93 371.3 182.13 382.54 182.18 387.69C182.18 390.12 183.88 394.69 183.88 394.69C183.88 394.69 176.88 398.23 173.3 396.69C169.72 395.15 167.37 389.48 167.46 388.44L166.68 387.19Z" fill="#FFA8A7"/>
<path d="M203.93 412.09C204.17 412.09 204.26 414.38 202.86 415.44C199.107 417.795 194.603 418.645 190.25 417.82C184.33 416.73 181.2 414.73 178.92 412.63C176.64 410.53 173.47 407.57 170.8 406.83C168.408 406.034 166.193 404.781 164.28 403.14C163.52 402.34 163.83 398.95 163.83 398.95L203.93 412.09Z" fill="#263238"/>
<path d="M166.56 385.83C166.56 385.83 166.23 385.98 166.03 386.76C165.79 387.69 165.43 390.39 164.95 391.91C164.17 394.575 163.809 397.344 163.88 400.12C164.1 401.88 168.75 404.24 171.3 405.36C174.293 406.853 177.043 408.788 179.46 411.1C182.13 413.53 187.9 416.23 191.79 416.42C196.4 416.64 201.67 415.47 202.98 413.42C204.6 410.9 205.85 407.94 199.21 404.42C197.95 403.76 193.56 400.86 192.07 399.82C188.07 396.99 185.23 394.45 183.58 389.75C183.453 389.176 183.136 388.661 182.68 388.29C182.27 388.092 181.809 388.025 181.36 388.1C179.078 388.226 176.808 388.52 174.57 388.98C173.63 389.36 172.3 389.79 172.25 390.98C172.254 391.384 172.318 391.785 172.44 392.17C172.51 392.41 172.55 392.72 172.34 392.85C172.13 392.98 171.88 392.85 171.71 392.64C171.075 391.931 170.503 391.168 170 390.36C169.497 389.636 168.946 388.948 168.35 388.3C167.961 388.053 167.587 387.782 167.23 387.49C166.816 387.034 166.579 386.445 166.56 385.83Z" fill="#455A64"/>
<path d="M179.46 411.1C178.324 410.06 177.136 409.079 175.9 408.16C175.9 408.16 183.65 413.41 187.02 411.41C189.19 410.12 188.3 408.41 188.28 407.81C188.26 407.21 195.87 403.81 197.91 403.7C198.329 403.978 198.763 404.231 199.21 404.46C204.42 406.86 204.97 409.6 203.88 412.96C202.57 414.96 197.82 416.91 191.88 416.57C188 416.35 182.13 413.53 179.46 411.1Z" fill="#37474F"/>
<path d="M187.81 406.18C191.96 408.09 190.1 408.77 188.9 408.87C187.7 408.97 180.8 404.46 176.64 400.82C172.3 397.03 169.04 392.08 167.43 390.69C166.82 390.17 166.18 389.53 165.61 388.94C165.78 388.03 165.92 387.2 166.03 386.76C166.23 385.98 166.56 385.83 166.56 385.83C166.683 386.419 166.91 386.981 167.23 387.49C167.586 387.782 167.961 388.053 168.35 388.3C168.946 388.948 169.497 389.636 170 390.36C170.503 391.168 171.075 391.931 171.71 392.64C175.15 397.48 183.66 404.27 187.81 406.18Z" fill="#37474F"/>
<path d="M188.64 408.24C188.543 408.235 188.451 408.196 188.38 408.13C188.34 408.092 188.309 408.046 188.287 407.995C188.265 407.945 188.254 407.89 188.254 407.835C188.254 407.78 188.265 407.725 188.287 407.675C188.309 407.624 188.34 407.578 188.38 407.54C189.67 406.17 195.55 403.05 198.65 403.54C198.757 403.559 198.853 403.619 198.916 403.708C198.978 403.797 199.003 403.908 198.985 404.015C198.966 404.122 198.906 404.218 198.817 404.281C198.727 404.344 198.617 404.369 198.51 404.35C195.61 403.88 190.02 406.98 189 408.07C188.958 408.125 188.903 408.17 188.841 408.199C188.778 408.229 188.709 408.243 188.64 408.24Z" fill="#263238"/>
<path d="M185.07 405.79C184.991 405.786 184.914 405.759 184.85 405.713C184.785 405.668 184.735 405.605 184.704 405.531C184.674 405.458 184.665 405.378 184.678 405.3C184.692 405.222 184.727 405.149 184.78 405.09C186.06 403.72 191.94 400.61 195.05 401.09C195.104 401.097 195.155 401.115 195.202 401.143C195.249 401.171 195.289 401.208 195.321 401.252C195.353 401.296 195.375 401.346 195.387 401.399C195.399 401.452 195.4 401.507 195.39 401.56C195.381 401.614 195.362 401.666 195.333 401.713C195.304 401.759 195.266 401.8 195.222 401.831C195.177 401.863 195.126 401.886 195.073 401.897C195.019 401.909 194.964 401.91 194.91 401.9C192.01 401.44 186.42 404.53 185.4 405.62C185.361 405.671 185.311 405.713 185.254 405.742C185.197 405.772 185.134 405.788 185.07 405.79Z" fill="#263238"/>
<path d="M181.49 403.46C181.394 403.451 181.303 403.412 181.23 403.35C181.19 403.312 181.159 403.266 181.137 403.215C181.116 403.165 181.104 403.11 181.104 403.055C181.104 403 181.116 402.945 181.137 402.895C181.159 402.844 181.19 402.798 181.23 402.76C182.51 401.38 188.39 398.27 191.5 398.76C191.607 398.779 191.703 398.839 191.766 398.928C191.828 399.017 191.853 399.128 191.835 399.235C191.816 399.342 191.756 399.438 191.667 399.501C191.578 399.564 191.467 399.589 191.36 399.57C188.46 399.1 182.87 402.2 181.85 403.29C181.808 403.345 181.753 403.39 181.691 403.419C181.628 403.449 181.559 403.463 181.49 403.46Z" fill="#263238"/>
<path d="M178.2 400.84C178.121 400.836 178.044 400.809 177.98 400.763C177.915 400.718 177.865 400.654 177.834 400.581C177.804 400.508 177.795 400.428 177.808 400.35C177.822 400.272 177.857 400.199 177.91 400.14C179.19 398.77 185.09 395.66 188.18 396.14C188.233 396.149 188.284 396.169 188.329 396.198C188.375 396.226 188.415 396.264 188.446 396.308C188.477 396.352 188.499 396.402 188.511 396.455C188.523 396.507 188.524 396.562 188.515 396.615C188.506 396.668 188.486 396.719 188.457 396.765C188.428 396.81 188.391 396.85 188.347 396.881C188.303 396.912 188.253 396.934 188.2 396.946C188.147 396.958 188.093 396.959 188.04 396.95C185.14 396.49 179.55 399.58 178.53 400.67C178.491 400.721 178.441 400.763 178.384 400.792C178.327 400.822 178.264 400.838 178.2 400.84Z" fill="#263238"/>
<path d="M175 398.22C174.904 398.219 174.811 398.183 174.74 398.12C174.7 398.082 174.668 398.036 174.647 397.985C174.625 397.935 174.614 397.88 174.614 397.825C174.614 397.77 174.625 397.715 174.647 397.665C174.668 397.614 174.7 397.568 174.74 397.53C176.5 395.58 182.62 393.05 185.74 393.53C185.794 393.537 185.846 393.555 185.893 393.583C185.94 393.611 185.981 393.648 186.013 393.691C186.046 393.735 186.069 393.785 186.083 393.838C186.096 393.891 186.098 393.946 186.09 394C186.08 394.055 186.06 394.107 186.03 394.153C186 394.2 185.961 394.24 185.915 394.272C185.87 394.304 185.818 394.326 185.764 394.338C185.71 394.349 185.654 394.35 185.6 394.34C182.81 393.88 176.95 396.34 175.38 398.05C175.339 398.111 175.281 398.16 175.214 398.19C175.147 398.22 175.072 398.23 175 398.22Z" fill="#263238"/>
<path d="M136.44 395.18L140.22 377.62L122.91 375.14L122.81 392.44C122.81 392.44 121.53 397.1 122.52 398.69C123.51 400.28 133.91 401.82 134.85 400.75C135.79 399.68 136.44 395.18 136.44 395.18Z" fill="#FFA8A7"/>
<path d="M135 422.8C134.59 426.74 133.79 429.29 132.11 431.44C130.43 433.59 127.41 433.99 124.4 432.98C121.39 431.97 117.57 429.72 116.84 426.21C116.175 423.082 116.299 419.838 117.2 416.77L135 422.8Z" fill="#263238"/>
<path d="M122.81 392.44C121.55 392.39 121.92 395.44 121.39 400.78C120.8 406.52 118.27 411.04 117.39 415.65C116.39 420.91 116.62 423.33 118.61 426.8C120.6 430.27 127.97 434.26 131.85 430.03C135 426.58 135.29 422.41 135.23 417.03C135.054 412.486 135.137 407.935 135.48 403.4C135.88 399.4 137.48 395.73 136.48 395.17C136.37 395.75 135.35 399.79 134.65 399.73C134.595 399.228 134.595 398.722 134.65 398.22C134.695 397.99 134.693 397.754 134.643 397.525C134.593 397.296 134.496 397.08 134.36 396.89C133.762 396.434 133.083 396.095 132.36 395.89C131.13 395.54 128.95 395.12 127.71 394.89C127.09 394.77 126.46 394.68 125.84 394.61C125.309 394.535 124.77 394.535 124.24 394.61C124.098 394.634 123.962 394.688 123.843 394.769C123.724 394.851 123.624 394.956 123.55 395.08C123.475 395.271 123.444 395.476 123.46 395.68C123.444 396.048 123.377 396.411 123.26 396.76C123.26 396.92 123.07 397.1 122.9 397.04C122.833 397.012 122.778 396.962 122.744 396.898C122.709 396.835 122.697 396.761 122.71 396.69C122.71 396.08 122.77 392.78 122.81 392.44Z" fill="#455A64"/>
<path d="M117.73 414.16C117.58 414.92 116.65 419.94 118.18 421.04C119.71 422.14 120.93 418.3 120.93 418.3C120.93 418.3 124.93 417.66 130.69 420.54C130.35 421.34 131.14 424.17 132.76 423.77C134.38 423.37 135.22 417.58 135.23 417.5C135.23 422.65 134.91 426.68 131.85 430.03C127.97 434.26 120.6 430.27 118.61 426.8C116.62 423.33 116.39 420.91 117.39 415.65C117.49 415.12 117.61 414.63 117.73 414.16Z" fill="#37474F"/>
<path d="M121.38 418.7C121.27 420.63 119.14 419.7 119.16 417C119.18 414.3 120.54 407.59 121.04 403.1C121.34 396.65 121.55 392.39 122.81 392.44C122.81 392.5 122.81 392.57 122.81 392.63L122.71 396.72C122.52 400.66 122.55 408.31 122.02 411.88C121.667 414.138 121.453 416.416 121.38 418.7Z" fill="#37474F"/>
<path d="M130 420.42C130.625 418.233 131.113 416.008 131.46 413.76C132.03 410.24 134.07 403.16 135.07 399.36C135.4 398.73 136.43 395.18 136.43 395.18C137.3 395.41 136.43 398.8 136.08 400.39C135.73 401.98 135.21 403.67 134.72 405.94C133.47 410.43 133.41 417.13 132.6 419.72C131.79 422.31 129.53 422.27 130 420.42Z" fill="#37474F"/>
<path d="M130.8 420.71C130.74 420.699 130.683 420.679 130.63 420.65C127.69 419.084 124.357 418.41 121.04 418.71C120.92 418.728 120.798 418.702 120.695 418.638C120.593 418.574 120.516 418.475 120.48 418.36C120.466 418.306 120.465 418.249 120.476 418.194C120.487 418.139 120.511 418.087 120.544 418.043C120.577 417.998 120.62 417.961 120.67 417.934C120.719 417.908 120.774 417.893 120.83 417.89C124.383 417.557 127.956 418.292 131.09 420C131.142 420.024 131.188 420.059 131.225 420.102C131.263 420.145 131.291 420.196 131.308 420.25C131.325 420.305 131.33 420.362 131.324 420.419C131.317 420.476 131.299 420.531 131.27 420.58C131.211 420.644 131.136 420.689 131.053 420.712C130.97 420.735 130.882 420.735 130.8 420.71Z" fill="#263238"/>
<path d="M132 416.63L131.85 416.58C128.52 414.922 124.812 414.173 121.1 414.41C120.981 414.421 120.861 414.391 120.763 414.323C120.664 414.255 120.592 414.155 120.56 414.04C120.55 413.986 120.551 413.931 120.565 413.878C120.578 413.825 120.602 413.775 120.636 413.732C120.671 413.69 120.714 413.655 120.763 413.63C120.811 413.606 120.865 413.592 120.92 413.59C124.843 413.318 128.768 414.109 132.28 415.88C132.331 415.903 132.377 415.937 132.415 415.979C132.453 416.021 132.481 416.07 132.499 416.124C132.517 416.177 132.523 416.234 132.518 416.29C132.513 416.346 132.497 416.401 132.47 416.45C132.419 416.524 132.347 416.582 132.263 416.614C132.179 416.646 132.087 416.652 132 416.63Z" fill="#263238"/>
<path d="M121.57 410.46C121.485 410.443 121.405 410.404 121.339 410.348C121.273 410.292 121.221 410.221 121.19 410.14C121.173 410.087 121.168 410.032 121.176 409.977C121.183 409.922 121.202 409.87 121.231 409.823C121.261 409.777 121.3 409.737 121.346 409.707C121.393 409.677 121.445 409.658 121.5 409.65C127.17 408.58 132.61 411.71 132.84 411.85C132.89 411.874 132.936 411.908 132.972 411.951C133.009 411.994 133.036 412.043 133.052 412.097C133.068 412.151 133.072 412.207 133.065 412.263C133.058 412.319 133.039 412.372 133.01 412.42C132.937 412.513 132.832 412.575 132.716 412.595C132.6 412.615 132.48 412.592 132.38 412.53C132.38 412.53 127.04 409.46 121.77 410.46C121.703 410.47 121.636 410.47 121.57 410.46Z" fill="#263238"/>
<path d="M122 406.73C121.915 406.715 121.836 406.679 121.769 406.625C121.703 406.57 121.651 406.5 121.62 406.42C121.601 406.368 121.595 406.313 121.601 406.258C121.606 406.203 121.624 406.15 121.653 406.104C121.682 406.057 121.721 406.017 121.767 405.987C121.813 405.957 121.865 405.937 121.92 405.93C125.914 405.221 130.031 406 133.49 408.12C133.539 408.147 133.581 408.185 133.615 408.23C133.648 408.275 133.672 408.326 133.684 408.381C133.696 408.436 133.697 408.492 133.686 408.547C133.675 408.602 133.652 408.654 133.62 408.7C133.541 408.789 133.431 408.845 133.313 408.858C133.195 408.871 133.076 408.84 132.98 408.77C129.742 406.833 125.917 406.123 122.2 406.77C122.131 406.777 122.061 406.763 122 406.73Z" fill="#263238"/>
<path d="M122.58 402.55C122.498 402.535 122.422 402.499 122.357 402.447C122.292 402.394 122.242 402.327 122.21 402.25C122.188 402.198 122.178 402.142 122.181 402.086C122.185 402.03 122.201 401.976 122.229 401.927C122.257 401.878 122.297 401.837 122.344 401.806C122.391 401.776 122.444 401.756 122.5 401.75C128.35 400.47 133.91 403.91 134.15 404.06C134.2 404.087 134.243 404.123 134.278 404.168C134.312 404.213 134.337 404.264 134.35 404.319C134.363 404.373 134.365 404.43 134.354 404.486C134.344 404.541 134.322 404.594 134.29 404.64C134.214 404.73 134.107 404.788 133.991 404.802C133.874 404.817 133.756 404.788 133.66 404.72C133.6 404.72 128.23 401.36 122.79 402.55C122.721 402.57 122.649 402.57 122.58 402.55Z" fill="#263238"/>
<path d="M130.38 240.4C128.12 251.04 126.68 257.4 126.12 284.79C125.6 310.62 125.12 318.93 124.97 322.18C124.82 325.43 122.18 332.7 121.64 348.5C121.383 359.627 121.774 370.759 122.81 381.84C122.81 381.84 124.61 384.59 130.74 385.14C133.908 385.513 137.11 384.809 139.83 383.14C139.83 383.14 147.4 352.56 149.55 342.91C151.7 333.26 157.46 301.26 157.46 301.26L159.73 327C159.73 327 158.16 335.93 160.17 350.47C162.1 364.47 165.61 378.17 165.61 378.17C165.61 378.17 168 380.17 174.61 379.76C177.548 379.584 180.446 378.995 183.22 378.01C183.22 378.01 185.55 336.26 186.03 320.34C186.57 302.91 185.45 264.53 183.09 240.34L130.38 240.4Z" fill="#37474F"/>
<path d="M162.51 270.65L157.51 301.28L159.73 327L159.59 300.91L164.1 275.78C167.94 274.86 176.68 270.25 179.1 263.67C173.16 269.88 162.51 270.65 162.51 270.65ZM144.56 252.74C145.24 250.17 145.95 247.61 146.76 245.03C145.347 247.335 144.187 249.786 143.3 252.34C142.383 254.877 141.612 257.465 140.99 260.09C140.39 262.72 139.88 265.36 139.53 268.03C139.148 270.699 138.971 273.394 139 276.09C139.64 273.47 140.24 270.87 140.84 268.27C141.44 265.67 142.02 263.07 142.65 260.48C143.28 257.89 143.89 255.31 144.56 252.74ZM140.7 250.81C141.57 249.24 142.44 247.66 143.23 246C141.889 247.245 140.67 248.614 139.59 250.09C138.487 251.554 137.484 253.09 136.59 254.69C135.707 256.294 134.954 257.966 134.34 259.69C133.7 261.413 133.287 263.211 133.11 265.04L135.56 260.21C136.39 258.63 137.21 257.05 138.08 255.5C138.95 253.95 139.84 252.38 140.7 250.81ZM137.5 353.09C136.007 361.383 134.623 369.697 133.35 378.03C135.27 369.823 137.087 361.593 138.8 353.34C140.54 345.09 142.17 336.86 143.8 328.55C145.43 320.24 146.34 311.84 147.15 303.45C147.96 295.06 148.59 286.65 149.15 278.24C147.99 286.59 146.94 294.95 145.89 303.3C144.84 311.65 143.72 319.99 142.18 328.25C140.64 336.51 139 344.8 137.5 353.09ZM178.41 311.09C178.53 314.96 178.74 318.26 178.69 322.09C178.64 325.92 178.42 329.16 178.27 333.14C178.17 336.14 178.01 341.04 177.97 343.95C177.86 351.71 177.97 358.62 177.97 366.17C178.59 358.82 178.97 351.49 179.28 344.17C179.59 336.85 180.28 329.48 180.35 322.17C180.42 314.86 179.73 307.52 179.35 300.17C178.97 292.82 178.35 285.58 177.48 278.36C177.74 285.27 177.89 293.48 178.04 300.06C178.16 304.34 178.28 307.18 178.41 311.05V311.09Z" fill="#263238"/>
<path d="M126.81 256.13C128.2 245.51 129.29 236.65 128.88 232.64C128.01 224.2 127.52 222.64 126.81 217.93C125.27 207.61 130 196.01 132.4 193.93C132.4 193.93 144.86 191.19 147.29 190.78C151.51 189.967 155.829 189.799 160.1 190.28C161.22 190.39 172.02 192.15 172.02 192.15C174.105 194.505 176.008 197.015 177.71 199.66C180.56 204.2 182.71 207.54 183.32 218.11C184.02 230.57 184.2 247.2 184.76 254.98C174.93 266.75 139.15 266.32 126.81 256.13Z" fill="#F5F5F5"/>
<path d="M170.41 168.84C170.62 168.54 171.06 167.65 171.49 167.45C176.67 162.21 174.95 156.28 173.07 152.67C168.86 144.59 159.42 142.86 153.69 143.18C144.79 143.67 138.95 146.93 135.11 151.61C131.04 156.61 130.6 163.55 131.11 171.22C131.52 177.45 131.65 184.53 132.17 191.52C134.23 191.52 135.3 191.4 137.53 191.24C137.36 189.3 137.15 185.16 137.15 185.16C137.15 185.16 138.01 190.21 138.21 191.16C146.68 190.63 153.29 189.95 159.9 188.9C159.9 187.67 159.9 185.54 159.9 184.31C160.18 185.54 160.73 189.21 160.73 189.21C160.73 189.21 169.34 187.99 172.24 186.77C171.46 183.19 170.81 177.72 170.7 176.89C170.42 174.83 170.2 173.17 170.06 171.64C169.845 170.694 169.969 169.704 170.41 168.84Z" fill="#37474F"/>
<path d="M142.93 179.83C142.013 180.152 141.018 180.178 140.085 179.905C139.153 179.633 138.329 179.075 137.73 178.31C135.1 175.41 134.83 172.36 135.86 170.31C136.328 169.412 137.113 168.719 138.062 168.366C139.012 168.013 140.058 168.025 141 168.4C142.46 169.12 142.73 169.94 143.24 171.33C143.267 171.478 143.328 171.619 143.418 171.74C143.508 171.862 143.624 171.962 143.758 172.032C143.891 172.102 144.039 172.141 144.19 172.146C144.341 172.151 144.492 172.121 144.63 172.06C144.953 171.883 145.226 171.625 145.42 171.311C145.615 170.997 145.725 170.639 145.74 170.27C145.884 169.516 145.935 168.747 145.89 167.98C145.873 167.758 145.907 167.536 145.99 167.33C146.09 167.1 146.45 167.04 146.66 166.91C147.974 166.127 148.94 164.871 149.36 163.4C149.371 164.6 149.179 165.794 148.79 166.93C151.28 166.169 153.525 164.765 155.3 162.86C157.07 160.963 158.531 158.8 159.63 156.45C160.386 155.052 160.877 153.526 161.08 151.95C165.16 153.66 169.08 157.14 169.54 161.75C169.766 163.057 170.07 164.349 170.45 165.62C172.89 176.23 171.09 180.62 168.71 183.27C167.34 184.82 165.15 186 161.58 186.51L161.52 191.23C163.641 196.307 165.045 201.655 165.69 207.12C165.69 207.12 163.17 204.64 153.23 198.12C150.052 195.933 146.708 193.997 143.23 192.33L144.68 177.47C144.608 177.978 144.41 178.46 144.104 178.872C143.799 179.284 143.395 179.613 142.93 179.83Z" fill="#FFA8A7"/>
<path d="M160.1 177.16C160.094 177.383 160.022 177.6 159.893 177.782C159.764 177.965 159.583 178.105 159.375 178.185C159.166 178.265 158.938 178.281 158.72 178.232C158.503 178.182 158.304 178.069 158.15 177.907C157.997 177.745 157.894 177.541 157.857 177.321C157.819 177.1 157.847 176.874 157.938 176.67C158.029 176.466 158.178 176.293 158.367 176.174C158.556 176.055 158.777 175.994 159 176C159.148 176.004 159.295 176.037 159.43 176.097C159.566 176.158 159.688 176.244 159.79 176.352C159.892 176.46 159.972 176.587 160.026 176.725C160.079 176.864 160.104 177.012 160.1 177.16Z" fill="#B16668"/>
<path d="M167.89 161.53L164.17 160.81C164.205 160.566 164.289 160.331 164.417 160.12C164.546 159.909 164.715 159.727 164.917 159.583C165.118 159.44 165.346 159.34 165.587 159.287C165.828 159.235 166.078 159.233 166.32 159.28C166.819 159.384 167.26 159.675 167.552 160.093C167.843 160.512 167.964 161.025 167.89 161.53Z" fill="#263238"/>
<path d="M155.11 161.66L151.75 163.94C151.441 163.509 151.316 162.973 151.402 162.45C151.488 161.927 151.779 161.459 152.21 161.15C152.667 160.848 153.222 160.732 153.761 160.827C154.301 160.922 154.783 161.22 155.11 161.66Z" fill="#263238"/>
<path d="M153.53 166.86C153.572 167.161 153.703 167.443 153.905 167.67C154.107 167.898 154.372 168.06 154.667 168.137C154.961 168.213 155.272 168.201 155.559 168.101C155.847 168.002 156.098 167.819 156.282 167.577C156.466 167.335 156.574 167.043 156.592 166.74C156.611 166.436 156.539 166.134 156.386 165.871C156.232 165.608 156.005 165.396 155.731 165.263C155.458 165.129 155.151 165.079 154.85 165.12C154.648 165.146 154.454 165.211 154.278 165.313C154.102 165.415 153.948 165.551 153.825 165.713C153.702 165.875 153.612 166.06 153.562 166.257C153.511 166.454 153.5 166.659 153.53 166.86Z" fill="#263238"/>
<path d="M164.6 165.31C164.641 165.614 164.771 165.9 164.974 166.13C165.177 166.36 165.444 166.525 165.741 166.603C166.037 166.682 166.351 166.67 166.641 166.57C166.931 166.47 167.186 166.286 167.371 166.042C167.557 165.797 167.665 165.503 167.684 165.196C167.702 164.89 167.628 164.585 167.473 164.32C167.317 164.055 167.087 163.843 166.81 163.709C166.534 163.576 166.224 163.527 165.92 163.57C165.516 163.63 165.151 163.845 164.905 164.17C164.658 164.496 164.548 164.905 164.6 165.31Z" fill="#263238"/>
<path d="M159.46 163.94L161.15 173.28L166.13 170.98L159.46 163.94Z" fill="#F28F8F"/>
<path d="M161.58 186.51C158.444 186.821 155.278 186.481 152.28 185.51C149.55 184.51 147.21 181.28 146.21 179.08C146.295 180.621 146.762 182.117 147.569 183.433C148.375 184.749 149.496 185.844 150.83 186.62C155.7 189.37 161.59 188.62 161.59 188.62L161.58 186.51Z" fill="#F28F8F"/>
<path d="M132.4 194C125.75 195.1 123.51 197.16 120.76 204.37C118.11 211.37 111.96 227 113.76 237.51C114.87 243.93 131.06 227.81 131.06 227.81L136.46 211C136.46 211 137.19 196.5 132.4 194Z" fill="#FFA8A7"/>
<path d="M136.9 199C137.968 202.549 138.619 206.21 138.84 209.91L131.08 227.78C131.08 227.78 128.75 230.1 125.8 232.63L114.8 226.93C114.95 224.2 121.23 216.23 125.11 212.15C128 209.15 133.9 202.19 136.9 199Z" fill="#F28F8F"/>
<path d="M134.25 202.79C135.921 200.695 137.158 198.288 137.89 195.71C138.64 192.71 141.01 189.95 141.81 188.81C142.61 187.67 144.36 186 145.68 184.4C147 182.8 147.4 182.4 149.31 182.04C151.93 181.6 153.99 181.18 155.02 181.5C156.05 181.82 156.02 182.5 155.12 183.39C154.22 184.28 152.35 184.52 151.77 184.7C151.19 184.88 149.91 185.43 149.91 185.43L147.48 189C149.147 189.282 150.791 189.683 152.4 190.2C153.21 190.64 153.9 192.72 153.55 193.87C153.953 194.133 154.26 194.52 154.424 194.973C154.589 195.426 154.601 195.92 154.46 196.38C154.46 196.38 155.39 197.59 154.75 198.57C154.043 199.57 153.221 200.483 152.3 201.29C151.517 201.633 150.675 201.82 149.82 201.84C148.946 203.172 147.901 204.382 146.71 205.44C145.3 206.49 144.38 206.44 142.83 208.61L134.25 202.79Z" fill="#FFA8A7"/>
<path d="M149.33 189.38C150.33 188.96 150.52 188.3 151.44 188.65C152.36 189 152.01 190.05 152.01 190.05L149.33 189.38Z" fill="#F28F8F"/>
<path d="M153.52 194C152.911 193.483 152.239 193.046 151.52 192.7C150.85 192.38 149.44 191.88 149.44 191.88C150.421 191.966 151.385 192.195 152.3 192.56C152.771 192.739 153.223 192.964 153.65 193.23C153.652 193.456 153.622 193.682 153.56 193.9L153.52 194Z" fill="#F28F8F"/>
<path d="M153.65 195.36C153.973 195.499 154.287 195.659 154.59 195.84C154.567 196.065 154.517 196.287 154.44 196.5C153.683 195.808 152.805 195.262 151.85 194.89C152.465 194.98 153.069 195.138 153.65 195.36Z" fill="#F28F8F"/>
<path d="M149.45 202.38C150.011 201.238 150.681 200.153 151.45 199.14C151.698 198.862 152.043 198.689 152.414 198.655C152.786 198.622 153.156 198.731 153.45 198.96C153.71 199.35 152.37 199.3 151.98 199.47C150.994 200.306 150.141 201.288 149.45 202.38Z" fill="#F28F8F"/>
<path d="M146.35 188.9C146.35 188.9 147.1 187.84 148.45 186.15C149.8 184.46 149.72 184.7 151.03 184.44C152.34 184.18 154.82 183.74 155.5 182.95C155.382 183.104 155.255 183.251 155.12 183.39C154.26 184.27 152.35 184.52 151.77 184.7C151.19 184.88 149.91 185.43 149.91 185.43L147.41 189.11L146.35 188.9Z" fill="#F28F8F"/>
<path d="M134.25 202.79C129.84 208.1 117.98 220.87 115.25 225.95C113.35 229.47 112.88 237.64 114.81 240.6C116.74 243.56 122.28 242.33 126.81 238.39C130.67 234.99 133.9 226.82 136.71 221C139.52 215.18 142.88 208.62 142.88 208.62L134.25 202.79Z" fill="#FFA8A7"/>
<path d="M134.25 202.79C135.266 201.453 136.16 200.027 136.92 198.53C137.285 197.773 137.586 196.987 137.82 196.18C138.016 195.365 138.291 194.572 138.64 193.81C139.387 192.313 140.288 190.899 141.33 189.59C142.33 188.242 143.422 186.966 144.6 185.77C145.17 185.16 145.72 184.51 146.26 183.87C146.746 183.204 147.417 182.696 148.19 182.41C148.997 182.2 149.815 182.036 150.64 181.92C151.47 181.78 152.3 181.65 153.13 181.56C153.921 181.385 154.749 181.491 155.47 181.86C155.78 182.09 155.67 182.51 155.47 182.86C155.239 183.193 154.943 183.475 154.6 183.69C153.867 184.069 153.082 184.335 152.27 184.48C151.449 184.693 150.649 184.981 149.88 185.34L147.46 188.92L147.36 189.07H147.54C149.02 189.36 150.54 189.64 151.97 190.07C152.73 190.21 153.09 190.94 153.35 191.63C153.618 192.324 153.68 193.081 153.53 193.81V193.87H153.58C153.959 194.143 154.262 194.507 154.46 194.93C154.547 195.143 154.594 195.37 154.6 195.6C154.595 195.829 154.551 196.056 154.47 196.27C154.693 196.531 154.844 196.844 154.911 197.18C154.977 197.517 154.956 197.864 154.85 198.19C154.484 198.796 154.048 199.357 153.55 199.86C153.31 200.13 153.06 200.38 152.81 200.63C152.587 200.896 152.307 201.108 151.99 201.25C151.309 201.447 150.608 201.564 149.9 201.6C149.45 202.28 148.96 202.94 148.45 203.6C147.945 204.247 147.36 204.828 146.71 205.33C146.06 205.82 145.29 206.14 144.63 206.63C143.986 207.143 143.426 207.754 142.97 208.44C143.434 207.763 144.001 207.162 144.65 206.66C145.31 206.18 146.08 205.87 146.75 205.38C147.411 204.889 148.006 204.314 148.52 203.67C149.047 203.052 149.538 202.405 149.99 201.73C150.704 201.701 151.413 201.587 152.1 201.39C152.435 201.241 152.732 201.019 152.97 200.74C153.23 200.49 153.48 200.23 153.73 199.97C154.238 199.454 154.685 198.88 155.06 198.26C155.179 197.914 155.209 197.544 155.146 197.184C155.083 196.823 154.93 196.485 154.7 196.2C154.784 195.979 154.828 195.746 154.83 195.51C154.827 195.255 154.773 195.003 154.67 194.77C154.476 194.334 154.173 193.955 153.79 193.67C153.933 192.92 153.868 192.145 153.6 191.43C153.472 191.075 153.297 190.739 153.08 190.43C152.959 190.266 152.81 190.123 152.64 190.01C152.47 189.912 152.288 189.835 152.1 189.78C150.691 189.375 149.263 189.041 147.82 188.78L150.13 185.38C150.871 185.03 151.644 184.755 152.44 184.56C153.279 184.408 154.089 184.125 154.84 183.72C155.215 183.492 155.536 183.185 155.78 182.82C155.913 182.632 156.002 182.417 156.04 182.19C156.057 182.066 156.041 181.94 155.994 181.824C155.946 181.708 155.869 181.606 155.77 181.53C155.406 181.269 154.968 181.129 154.52 181.13C154.093 181.117 153.665 181.133 153.24 181.18C152.4 181.27 151.57 181.42 150.75 181.56C149.914 181.678 149.086 181.844 148.27 182.06C147.47 182.371 146.775 182.906 146.27 183.6C145.73 184.24 145.2 184.88 144.63 185.5C143.455 186.703 142.366 187.986 141.37 189.34C140.323 190.661 139.424 192.093 138.69 193.61C138.341 194.378 138.07 195.178 137.88 196C137.662 196.81 137.374 197.6 137.02 198.36C136.237 199.92 135.309 201.403 134.25 202.79Z" fill="#B16668"/>
</svg>
