<svg width="814" height="704" viewBox="0 0 814 704" fill="none" xmlns="http://www.w3.org/2000/svg">
<path d="M722.702 525.196H428.447C423.185 525.196 418.904 520.914 418.904 515.652V87.0424C418.904 81.7807 423.185 77.4991 428.447 77.4991H722.702C727.963 77.4991 732.245 81.7791 732.245 87.0424V515.651C732.245 520.914 727.963 525.196 722.702 525.196ZM428.447 77.9061C423.408 77.9061 419.311 82.0054 419.311 87.0424V515.651C419.311 520.69 423.41 524.787 428.447 524.787H722.702C727.74 524.787 731.838 520.69 731.838 515.651V87.0424C731.838 82.0054 727.739 77.9061 722.702 77.9061H428.447Z" fill="#E0E0E0"/>
<path d="M383.382 525.196H89.1263C83.8646 525.196 79.583 520.914 79.583 515.652V87.0424C79.583 81.7807 83.863 77.499 89.1263 77.499H383.382C388.644 77.499 392.926 81.779 392.926 87.0424V515.651C392.926 520.914 388.644 525.196 383.382 525.196ZM89.1263 77.906C84.0893 77.906 79.99 82.0053 79.99 87.0424V515.651C79.99 520.69 84.0893 524.787 89.1263 524.787H383.382C388.421 524.787 392.519 520.69 392.519 515.651V87.0424C392.519 82.0053 388.419 77.906 383.382 77.906H89.1263Z" fill="#E0E0E0"/>
<path d="M814 624.616H0V625.023H814V624.616Z" fill="#E0E0E0"/>
<path d="M110.268 647.838H84.1221V648.245H110.268V647.838Z" fill="#E0E0E0"/>
<path d="M364.48 643.428H277.333V643.835H364.48V643.428Z" fill="#E0E0E0"/>
<path d="M170.911 662.964H111.896V663.371H170.911V662.964Z" fill="#E0E0E0"/>
<path d="M686.27 643.215H615.957V643.622H686.27V643.215Z" fill="#E0E0E0"/>
<path d="M711.081 643.215H700.776V643.622H711.081V643.215Z" fill="#E0E0E0"/>
<path d="M602.526 653.358H514.793V653.765H602.526V653.358Z" fill="#E0E0E0"/>
<path d="M497.662 128.888C530.961 124.702 554.562 94.3138 550.376 61.0144C546.19 27.7151 515.802 4.11403 482.503 8.30005C449.203 12.4861 425.602 42.874 429.788 76.1733C433.974 109.473 464.362 133.074 497.662 128.888Z" fill="#FAFAFA"/>
<path d="M481.537 97.5948C481.537 88.3869 474.072 80.9225 464.864 80.9225C463.199 80.9225 461.594 81.1748 460.076 81.6274C460.319 79.9555 460.451 78.2477 460.451 76.509C460.451 57.0104 444.643 41.2026 425.144 41.2026C422.922 41.2026 420.75 41.4174 418.64 41.8098C413.214 32.9291 403.459 26.9803 392.29 26.9803C375.384 26.9803 361.67 40.5644 361.419 57.4093C361.247 57.406 361.079 57.3832 360.905 57.3832C345.198 57.3832 332.464 70.1175 332.464 85.8244C332.464 101.531 345.198 114.266 360.905 114.266H465.354L465.333 114.243C474.321 113.992 481.537 106.645 481.537 97.5948Z" fill="#F0F0F0"/>
<path d="M157.976 403.086C157.976 397.207 153.209 392.44 147.331 392.44C146.268 392.44 145.242 392.602 144.273 392.891C144.428 391.823 144.513 390.733 144.513 389.622C144.513 377.173 134.419 367.079 121.97 367.079C120.55 367.079 119.165 367.216 117.817 367.468C114.352 361.798 108.123 358 100.991 358C90.1976 358 81.4422 366.672 81.281 377.429C81.1703 377.427 81.0629 377.412 80.9522 377.412C70.9237 377.412 62.7935 385.542 62.7935 395.571C62.7935 405.599 70.9237 413.731 80.9522 413.731H147.642L147.629 413.717C153.369 413.557 157.976 408.865 157.976 403.086Z" fill="#F0F0F0"/>
<path d="M753.62 100.126C753.62 94.2477 748.854 89.4809 742.975 89.4809C741.912 89.4809 740.888 89.6421 739.919 89.9319C740.074 88.8639 740.159 87.7731 740.159 86.6628C740.159 74.2119 730.065 64.1199 717.616 64.1199C716.196 64.1199 714.811 64.2567 713.463 64.5074C709.998 58.8371 703.77 55.0389 696.637 55.0389C685.844 55.0389 677.088 63.7113 676.927 74.4675C676.816 74.4659 676.709 74.4512 676.598 74.4512C666.57 74.4512 658.439 82.5814 658.439 92.6099C658.439 102.638 666.57 110.769 676.598 110.769H743.288L743.275 110.754C749.013 110.594 753.62 105.903 753.62 100.123V100.126Z" fill="#F0F0F0"/>
<path d="M248.262 57.1537C248.262 53.5525 245.343 50.6319 241.742 50.6319C241.091 50.6319 240.464 50.7296 239.87 50.907C239.964 50.2526 240.016 49.5851 240.016 48.9046C240.016 41.2774 233.833 35.0959 226.207 35.0959C225.338 35.0959 224.488 35.1806 223.664 35.3336C221.543 31.8594 217.727 29.533 213.358 29.533C206.746 29.533 201.382 34.8452 201.284 41.4337C201.218 41.4337 201.151 41.4239 201.084 41.4239C194.94 41.4239 189.96 46.404 189.96 52.5481C189.96 58.6921 194.94 63.6722 201.084 63.6722H241.937L241.929 63.6624C245.444 63.5647 248.267 60.6897 248.267 57.1504L248.262 57.1537Z" fill="#F0F0F0"/>
<path d="M753.453 402.757C753.453 400.087 751.288 397.922 748.618 397.922C748.136 397.922 747.67 397.995 747.229 398.127C747.299 397.642 747.338 397.147 747.338 396.642C747.338 390.988 742.754 386.404 737.1 386.404C736.455 386.404 735.825 386.466 735.215 386.58C733.64 384.004 730.812 382.28 727.573 382.28C722.671 382.28 718.694 386.218 718.62 391.104C718.57 391.104 718.521 391.096 718.471 391.096C713.915 391.096 710.223 394.788 710.223 399.343C710.223 403.898 713.915 407.59 718.471 407.59H748.76L748.753 407.584C751.359 407.511 753.451 405.38 753.451 402.755L753.453 402.757Z" fill="#F0F0F0"/>
<path d="M471.65 264.265C471.65 261.595 469.486 259.43 466.815 259.43C466.333 259.43 465.867 259.503 465.426 259.635C465.496 259.15 465.535 258.655 465.535 258.15C465.535 252.496 460.95 247.911 455.296 247.911C454.652 247.911 454.022 247.973 453.41 248.087C451.837 245.512 449.007 243.788 445.769 243.788C440.867 243.788 436.89 247.726 436.817 252.611C436.767 252.611 436.719 252.603 436.669 252.603C432.114 252.603 428.421 256.296 428.421 260.851C428.421 265.406 432.114 269.098 436.669 269.098H466.958L466.951 269.092C469.558 269.018 471.65 266.889 471.65 264.265Z" fill="#F0F0F0"/>
<path d="M675.934 614.19C683.509 610.003 693.404 621.411 693.404 621.411C693.404 621.411 682.378 606.519 687.706 603.955C693.033 601.389 703.125 614.19 703.125 614.19C703.125 614.19 694.348 595.548 700.427 594.272C703.376 593.652 708.265 598.834 712.519 604.335C712.966 597.297 714.667 589.91 719.783 589.225C725.79 588.421 728.432 598.358 729.586 606.391C734.148 600.212 739.916 593.575 743.232 594.272C749.311 595.548 740.535 614.19 740.535 614.19C740.535 614.19 750.627 601.389 755.954 603.955C761.28 606.521 750.256 621.411 750.256 621.411C750.256 621.411 760.149 610.003 767.726 614.19C775.301 618.378 776.364 624.829 776.364 624.829H667.296C667.296 624.829 668.359 618.378 675.934 614.19Z" fill="#E0E0E0"/>
<path d="M592.974 614.19C600.551 610.003 610.445 621.411 610.445 621.411C610.445 621.411 599.42 606.519 604.747 603.955C610.073 601.389 620.165 614.19 620.165 614.19C620.165 614.19 611.389 595.548 617.468 594.272C620.416 593.652 625.305 598.834 629.559 604.335C630.007 597.297 631.708 589.91 636.823 589.225C642.83 588.421 645.473 598.358 646.627 606.391C651.188 600.212 656.956 593.575 660.273 594.272C666.352 595.548 657.575 614.19 657.575 614.19C657.575 614.19 667.667 601.389 672.996 603.955C678.322 606.521 667.298 621.411 667.298 621.411C667.298 621.411 677.191 610.003 684.768 614.19C692.343 618.378 693.406 624.829 693.406 624.829H584.338C584.338 624.829 585.401 618.378 592.976 614.19H592.974Z" fill="#E0E0E0"/>
<path d="M483.541 614.19C491.117 610.003 501.011 621.411 501.011 621.411C501.011 621.411 489.986 606.519 495.313 603.955C500.639 601.389 510.731 614.19 510.731 614.19C510.731 614.19 501.955 595.548 508.034 594.272C510.982 593.652 515.871 598.834 520.125 604.335C520.573 597.297 522.274 589.91 527.389 589.225C533.396 588.421 536.039 598.358 537.193 606.391C541.755 600.212 547.523 593.575 550.839 594.272C556.918 595.548 548.141 614.19 548.141 614.19C548.141 614.19 558.233 601.389 563.562 603.955C568.888 606.521 557.862 621.411 557.862 621.411C557.862 621.411 567.755 610.003 575.332 614.19C582.907 618.378 583.97 624.829 583.97 624.829H474.902C474.902 624.829 475.965 618.378 483.541 614.19Z" fill="#E0E0E0"/>
<path d="M442.186 614.19C449.763 610.003 459.656 621.411 459.656 621.411C459.656 621.411 448.631 606.519 453.958 603.955C459.285 601.389 469.377 614.19 469.377 614.19C469.377 614.19 460.6 595.548 466.679 594.272C469.627 593.652 474.516 598.834 478.77 604.335C479.218 597.297 480.919 589.91 486.034 589.225C492.042 588.421 494.684 598.358 495.838 606.391C500.4 600.212 506.168 593.575 509.484 594.272C515.563 595.548 506.787 614.19 506.787 614.19C506.787 614.19 516.878 601.389 522.207 603.955C527.534 606.521 516.507 621.411 516.507 621.411C516.507 621.411 526.401 610.003 533.977 614.19C541.552 618.378 542.617 624.829 542.617 624.829H433.549C433.549 624.829 434.612 618.378 442.187 614.19H442.186Z" fill="#E0E0E0"/>
<path d="M344.099 614.19C351.674 610.003 361.569 621.411 361.569 621.411C361.569 621.411 350.544 606.519 355.871 603.955C361.198 601.389 371.29 614.19 371.29 614.19C371.29 614.19 362.513 595.548 368.592 594.272C371.541 593.652 376.43 598.834 380.684 604.335C381.131 597.297 382.832 589.91 387.948 589.225C393.955 588.421 396.599 598.358 397.751 606.391C402.313 600.212 408.081 593.575 411.397 594.272C417.478 595.548 408.7 614.19 408.7 614.19C408.7 614.19 418.792 601.389 424.119 603.955C429.445 606.521 418.421 621.411 418.421 621.411C418.421 621.411 428.314 610.003 435.891 614.19C443.466 618.378 444.529 624.829 444.529 624.829H335.461C335.461 624.829 336.524 618.378 344.099 614.19Z" fill="#E0E0E0"/>
<path d="M261.139 614.19C268.716 610.003 278.609 621.411 278.609 621.411C278.609 621.411 267.583 606.519 272.911 603.955C278.238 601.389 288.33 614.19 288.33 614.19C288.33 614.19 279.553 595.548 285.632 594.272C288.581 593.652 293.47 598.834 297.724 604.335C298.171 597.297 299.873 589.91 304.988 589.225C310.995 588.421 313.637 598.358 314.791 606.391C319.353 600.212 325.121 593.575 328.437 594.272C334.516 595.548 325.74 614.19 325.74 614.19C325.74 614.19 335.832 601.389 341.16 603.955C346.487 606.521 335.462 621.411 335.462 621.411C335.462 621.411 345.356 610.003 352.931 614.19C360.506 618.378 361.569 624.829 361.569 624.829H252.501C252.501 624.829 253.564 618.378 261.139 614.19Z" fill="#E0E0E0"/>
<path d="M178.18 614.19C185.756 610.003 195.65 621.411 195.65 621.411C195.65 621.411 184.625 606.519 189.952 603.955C195.279 601.389 205.371 614.19 205.371 614.19C205.371 614.19 196.594 595.548 202.673 594.272C205.621 593.652 210.51 598.834 214.764 604.335C215.212 597.297 216.913 589.91 222.028 589.225C228.036 588.421 230.678 598.358 231.832 606.391C236.394 600.212 242.162 593.575 245.478 594.272C251.557 595.548 242.78 614.19 242.78 614.19C242.78 614.19 252.872 601.389 258.199 603.955C263.526 606.521 252.501 621.411 252.501 621.411C252.501 621.411 262.394 610.003 269.971 614.19C277.546 618.378 278.609 624.829 278.609 624.829H169.542C169.542 624.829 170.605 618.378 178.18 614.19Z" fill="#E0E0E0"/>
<path d="M95.2217 614.19C102.797 610.003 112.69 621.411 112.69 621.411C112.69 621.411 101.665 606.519 106.992 603.955C112.319 601.389 122.411 614.19 122.411 614.19C122.411 614.19 113.634 595.548 119.713 594.272C122.662 593.652 127.55 598.834 131.804 604.335C132.252 597.297 133.953 589.91 139.069 589.225C145.076 588.421 147.718 598.358 148.872 606.391C153.434 600.212 159.202 593.575 162.518 594.272C168.597 595.548 159.821 614.19 159.821 614.19C159.821 614.19 169.913 601.389 175.241 603.955C180.568 606.521 169.541 621.411 169.541 621.411C169.541 621.411 179.435 610.003 187.012 614.19C194.587 618.378 195.65 624.829 195.65 624.829H86.5835C86.5835 624.829 87.6466 618.378 95.2217 614.19Z" fill="#E0E0E0"/>
<path d="M42.52 614.19C50.0967 610.003 59.9901 621.411 59.9901 621.411C59.9901 621.411 48.9636 606.519 54.2921 603.955C59.6189 601.389 69.7109 614.19 69.7109 614.19C69.7109 614.19 60.9343 595.548 67.0133 594.272C69.9616 593.651 74.8505 598.833 79.1044 604.334C79.5521 597.297 81.2534 589.91 86.3685 589.225C92.3759 588.421 95.0181 598.358 96.1724 606.391C100.734 600.212 106.502 593.575 109.818 594.272C115.897 595.548 107.121 614.19 107.121 614.19C107.121 614.19 117.213 601.389 122.541 603.955C127.868 606.521 116.841 621.411 116.841 621.411C116.841 621.411 126.736 610.003 134.312 614.19C141.887 618.378 142.95 624.829 142.95 624.829H33.8818C33.8818 624.829 34.9449 618.378 42.52 614.19Z" fill="#E0E0E0"/>
<path d="M747.049 693.297C747.049 698.811 594.803 703.279 407 703.279C219.197 703.279 66.9517 698.811 66.9517 693.297C66.9517 687.782 219.196 683.314 407 683.314C594.805 683.314 747.049 687.784 747.049 693.297Z" fill="#F5F5F5"/>
<path d="M557.854 284.008C557.854 284.008 553.823 282.7 552.516 285.022C551.208 287.343 552.096 291.083 552.096 291.083C552.096 291.083 547.379 289.837 548.576 295.708C548.576 295.708 543.719 298.14 547.215 302.204C547.215 302.204 550.791 313.753 554.922 314.785L566.438 311.6L566.765 293.585L557.854 284.008Z" fill="#B97964"/>
<path d="M628.582 379.138C628.582 379.138 576.188 355.871 571.53 349.453C566.873 343.037 566.208 306.783 566.208 306.783L554.005 307.641C554.005 307.641 546.484 346.477 554.09 360.511C561.697 374.542 606.982 393.372 606.982 393.372L628.582 379.138Z" fill="#B97964"/>
<path d="M580.914 347.723L567.006 383.019L573.207 384.537L599.597 390.957L600.951 388.183C606.627 376.564 614.55 366.186 624.264 357.652L580.914 347.723Z" fill="#FFC8C2"/>
<path d="M517.512 203.856C533.715 227.042 550.708 251.509 554.56 280.249C558.568 310.161 543.698 338.796 547.027 368.652C548.467 381.564 553.652 394.449 563.819 402.922C564.418 403.421 565.287 402.562 564.681 402.059C541.894 383.07 547.434 350.323 552.346 324.848C555.045 310.85 557.59 296.647 556.038 282.349C554.583 268.936 550.088 256.024 544.118 243.983C536.981 229.587 527.749 216.379 518.567 203.239C518.121 202.599 517.061 203.21 517.512 203.856Z" fill="#263238"/>
<path d="M526.259 137.971C524.076 134.427 521.544 131.112 518.698 128.075L520.144 126.728C523.078 129.878 525.691 133.312 527.942 136.981L526.26 137.971H526.259Z" fill="#FFC8C2"/>
<path d="M511.315 121.463C502.272 114.619 490.884 111.637 479.646 113.17L479.35 111.191C491.136 109.54 503.096 112.653 512.582 119.84L511.315 121.463Z" fill="#FFC8C2"/>
<path d="M522.043 140.565C507.89 117.564 484.04 112.102 465.711 123.384C447.383 134.666 441.523 158.419 455.617 181.418C469.175 203.428 497.421 218.767 515.868 210.118C515.461 212.28 515.869 214.515 517.015 216.392L525.546 211.127C524.389 209.256 522.575 207.887 520.459 207.287C536.571 194.697 535.601 162.575 522.043 140.565Z" fill="#FFC8C2"/>
<path d="M515.928 210.95C515.747 210.95 515.573 210.886 515.433 210.772C515.066 210.495 514.995 209.973 515.271 209.608V209.605C515.551 209.248 518.065 206.002 520.657 206.458C521.113 206.539 521.422 206.969 521.35 207.428C521.271 207.881 520.839 208.182 520.387 208.102H520.38C519.014 207.863 517.153 209.882 516.6 210.614C516.442 210.828 516.193 210.953 515.928 210.951V210.95Z" fill="#263238"/>
<path d="M554.908 165.5C550.544 195.12 555.893 224.807 557.617 254.402C558.052 261.865 558.277 269.329 557.826 276.797C557.383 284.138 556.466 291.438 555.693 298.747C554.223 312.634 554.016 326.378 555.851 340.243C557.686 354.109 561.394 368.029 568.833 380.017C569.246 380.683 570.303 380.071 569.888 379.4C563.138 368.52 559.507 356.037 557.541 343.464C555.439 330.033 555.203 316.496 556.489 302.975C557.173 295.793 558.107 288.636 558.71 281.445C559.323 274.134 559.413 266.852 559.1 259.524C558.477 244.911 556.785 230.375 555.613 215.802C554.275 199.171 553.647 182.388 556.089 165.824C556.203 165.056 555.026 164.724 554.912 165.5H554.908Z" fill="#263238"/>
<path d="M601.935 115.047C605.723 88.965 591.275 69.9516 570.487 66.9365C549.699 63.9215 530.451 78.0476 526.619 104.092C523.005 129.061 534.567 158.222 553.795 163.285C552.138 164.649 551.045 166.58 550.729 168.703L560.413 170.096C560.716 167.972 560.214 165.811 559.005 164.039C578.949 164.688 598.319 140.019 601.933 115.049L601.935 115.047Z" fill="#FFC8C2"/>
<path opacity="0.3" d="M601.935 115.047C605.723 88.965 591.275 69.9516 570.487 66.9365C549.699 63.9215 530.451 78.0476 526.619 104.092C523.005 129.061 534.567 158.222 553.795 163.285C552.138 164.649 551.045 166.58 550.729 168.703L560.413 170.096C560.716 167.972 560.214 165.811 559.005 164.039C578.949 164.688 598.319 140.019 601.933 115.049L601.935 115.047Z" fill="black"/>
<g opacity="0.3">
<path d="M577.036 82.0867C573.609 74.7053 563.014 71.0781 551.851 75.0065C547.397 77.0219 542.638 82.1908 540.207 86.4334C537.779 90.676 537.285 92.4831 536.103 97.2287C534.905 102.039 534.255 108.53 534.886 113.447C535.615 119.143 538.601 124.586 543.234 127.98C547.867 131.374 554.129 132.564 559.586 130.777C565.043 128.988 569.469 124.143 570.428 118.481C571.047 114.831 570.293 111.107 569.951 107.422C569.611 103.734 569.765 99.7488 571.906 96.7289C573.643 94.2804 576.548 92.6817 577.721 89.9173C578.776 87.433 578.171 84.5352 577.033 82.0867H577.036Z" fill="white"/>
</g>
<path d="M553.321 163.944C553.188 163.83 553.095 163.674 553.063 163.501C552.962 163.065 553.233 162.629 553.671 162.528H553.675C554.104 162.433 558.018 161.574 559.677 163.537C559.969 163.884 559.929 164.398 559.589 164.698C559.247 164.986 558.735 164.942 558.446 164.6L558.441 164.595C557.567 163.563 554.91 163.912 554.038 164.113C553.787 164.174 553.52 164.112 553.323 163.944H553.321Z" fill="#263238"/>
<path d="M562.395 393.11C556.793 371.511 554.882 349.046 555.529 326.778C556.193 303.879 559.568 281.01 565.673 258.927C569.005 246.87 573.181 235.044 578.348 223.648C578.671 222.938 577.619 222.316 577.293 223.031C568.015 243.49 561.834 265.297 558.153 287.433C554.347 310.326 553.147 333.738 555.105 356.877C556.149 369.202 558.112 381.455 561.22 393.432C561.417 394.192 562.596 393.87 562.397 393.108L562.395 393.11Z" fill="#263238"/>
<path d="M634.425 199.964C647.576 181.313 643.877 160.97 629.012 150.492C614.146 140.014 593.748 143.373 580.577 161.976C567.997 179.835 565.489 206.879 578.348 218.327C576.535 218.731 574.934 219.793 573.858 221.308L580.789 226.181C581.855 224.66 582.316 222.795 582.076 220.952C597.218 229.274 621.845 217.824 634.425 199.965V199.964Z" fill="#FFC8C2"/>
<path opacity="0.3" d="M634.425 199.964C647.576 181.313 643.877 160.97 629.012 150.492C614.146 140.014 593.748 143.373 580.577 161.976C567.997 179.835 565.489 206.879 578.348 218.327C576.535 218.731 574.934 219.793 573.858 221.308L580.789 226.181C581.855 224.66 582.316 222.795 582.076 220.952C597.218 229.274 621.845 217.824 634.425 199.965V199.964Z" fill="white"/>
<path d="M577.723 218.65C577.665 218.51 577.655 218.354 577.697 218.206C577.79 217.829 578.171 217.6 578.549 217.693H578.552C578.922 217.79 582.279 218.661 582.788 220.827C582.878 221.208 582.645 221.59 582.266 221.688C581.888 221.776 581.51 221.541 581.421 221.164V221.159C581.149 220.019 578.962 219.246 578.209 219.06C577.99 219.008 577.81 218.857 577.723 218.65Z" fill="#263238"/>
<path d="M567.172 304.54C567.172 304.54 570.288 298.22 569.448 294.173C568.608 290.126 561.785 285.424 560.911 281.053C560.037 276.682 559.884 277.093 557.785 277.717C555.687 278.342 555.729 284.118 556.786 287.154C557.842 290.192 559.708 291.037 558.949 293.092C558.191 295.146 554.785 301.826 560.745 304.654C566.705 307.482 567.171 304.538 567.171 304.538L567.172 304.54Z" fill="#B97964"/>
<path d="M587.957 498.858C587.957 498.858 572.717 584.577 572.893 614.366C573.069 644.155 568.5 676.178 568.5 676.178L584.886 676.443C584.886 676.443 598.612 631.159 599.594 617.995C600.577 604.831 617.386 523.897 617.386 523.897L587.955 498.858H587.957Z" fill="#B97964"/>
<path d="M635.192 498.858C635.192 498.858 642.669 583.827 648.641 613.012C654.612 642.197 666.124 676.175 666.124 676.175L682.249 673.246C682.249 673.246 677.137 624.478 675.539 611.374C673.94 598.27 673.377 503.991 673.377 503.991L635.192 498.858Z" fill="#B97964"/>
<path d="M637.517 679.766C644.33 678.991 653.126 674.335 658.114 670.378C655.659 658.462 657.087 657.901 660.053 658.462C663.607 659.135 668.291 666.369 668.291 666.369C680.553 660.512 685.448 668.419 685.448 668.419C691.096 686.84 689.978 685.139 682.157 686.628C675.373 686.941 672.118 686.752 663.568 687.218C658.323 687.53 647.983 688.645 640.744 687.945C633.505 687.244 634.391 680.108 637.518 679.766H637.517Z" fill="#263238"/>
<path d="M541.774 679.766C548.587 678.991 557.383 674.335 562.371 670.378C559.916 658.462 561.344 657.901 564.309 658.462C567.863 659.135 572.546 666.369 572.546 666.369C584.808 660.512 589.704 668.419 589.704 668.419C595.351 686.84 594.233 685.139 586.412 686.628C579.628 686.941 576.374 686.752 567.824 687.218C562.578 687.53 552.239 688.645 544.999 687.945C537.761 687.244 538.646 680.108 541.774 679.766Z" fill="#263238"/>
<path d="M595.934 450.959C584.271 488.821 577.202 518.698 573.266 550.378L619.149 551.996L626.06 525.95L630.843 551.996H680.274C680.274 551.996 681.92 485.324 678.957 465.433C675.994 445.544 667.629 446.135 667.629 446.135L595.934 450.959Z" fill="#263238"/>
<path d="M586.303 462.773L686.474 465.567C686.474 465.567 687.26 442.415 685.28 408.567C684.624 397.549 683.698 385.386 682.321 372.525C681.889 368.255 681.313 361.751 678.057 358.804C678.057 358.804 652.662 346.412 605.095 363.208C605.095 363.208 595.187 419.348 586.301 462.773H586.303Z" fill="#FFC8C2"/>
<path opacity="0.3" d="M586.303 462.773L686.474 465.567C686.474 465.567 687.26 442.415 685.28 408.567C684.624 397.549 683.698 385.386 682.321 372.525C681.889 368.255 681.313 361.751 678.057 358.804C678.057 358.804 652.662 346.412 605.095 363.208C605.095 363.208 595.187 419.348 586.301 462.773H586.303Z" fill="white"/>
<path d="M655.057 326.218C652.789 331.485 651.812 336.75 650.62 342.358C649.731 346.101 650.331 352.284 650.905 356.087L624.071 364.24C628.395 350.667 629.984 341.884 622.568 336.157C612.488 328.19 655.057 326.217 655.057 326.217V326.218Z" fill="#B97964"/>
<path d="M612.178 281.852C612.178 281.852 602.011 291.49 607.376 304.519C612.74 317.548 629.106 289.08 629.106 289.08L612.178 281.852Z" fill="#263238"/>
<path d="M666.285 306.135C661.978 324.353 660.519 335.236 648.511 342.918C630.451 354.541 606.266 341.922 604.356 322.72C602.541 305.443 609.917 278.594 631.396 274.59C652.872 270.585 670.573 287.97 666.285 306.134V306.135Z" fill="#B97964"/>
<path d="M633.502 312.011C633.355 313.868 632.227 315.312 630.998 315.185C629.769 315.058 628.976 313.466 629.093 311.617C629.21 309.767 630.387 308.327 631.612 308.439C632.837 308.551 633.604 310.166 633.502 312.011Z" fill="#263238"/>
<path d="M614.749 307.215C614.586 309.075 613.459 310.519 612.245 310.389C611.03 310.259 610.22 308.655 610.337 306.806C610.454 304.957 611.62 303.534 612.841 303.631C614.062 303.729 614.882 305.362 614.749 307.215Z" fill="#263238"/>
<path d="M630.547 298.259C630.412 298.075 630.331 297.857 630.313 297.631C630.373 297.023 630.906 296.574 631.514 296.615C635.055 296.778 638.287 298.679 640.149 301.696C640.439 302.22 640.25 302.881 639.726 303.171L639.716 303.176C639.182 303.452 638.526 303.265 638.222 302.747C636.68 300.379 634.074 298.918 631.249 298.835C630.948 298.744 630.696 298.537 630.547 298.259Z" fill="#263238"/>
<path d="M607.583 295.286C607.364 295.219 607.171 295.089 607.027 294.913C606.71 294.392 606.868 293.714 607.384 293.388C610.35 291.451 614.073 291.084 617.36 292.405C617.909 292.647 618.156 293.289 617.914 293.836L617.899 293.868C617.627 294.402 616.989 294.637 616.436 294.405C613.793 293.398 610.826 293.751 608.493 295.348C608.195 295.457 607.864 295.434 607.583 295.286Z" fill="#263238"/>
<path d="M618.71 312.701L612.908 316.421C612.908 316.421 614.124 318.755 619.25 319.786L618.712 312.701H618.71Z" fill="#A24E3F"/>
<path d="M669.087 293.321C669.087 293.321 675.06 281.193 662.007 275.032C658.08 273.189 649.65 265.466 644.551 260.607C642.047 258.222 637.764 259.9 637.754 263.36V263.436C635.15 262.178 632.602 260.805 630.121 259.322C625.466 256.542 619.461 258.018 616.405 262.497C614.161 265.785 612.299 269.429 612.732 272.022L609.947 270.585C607.26 269.198 604.343 272.001 605.624 274.739C608.564 281.023 613.585 288.807 620.546 289.284C632.323 290.09 643.301 285.986 643.247 301.775C643.194 317.565 652.273 320.764 652.273 320.764L652.981 323.206C654.528 328.54 653.404 335.874 650.951 340.856C649.875 343.039 668.232 328.978 672.825 314.179C677.834 298.039 669.085 293.323 669.085 293.323L669.087 293.321Z" fill="#263238"/>
<path d="M649.035 316.312C649.035 316.312 654.176 306.241 659.317 309.855C664.46 313.469 662.256 330.702 654.301 330.179C646.347 329.657 645.069 321.653 649.033 316.312H649.035Z" fill="#B97964"/>
<path d="M617.054 325.823C617.123 328.051 618.982 331.828 619.879 333.108L621.251 332.913C627.415 332.011 629.997 329.534 630.98 327.057C631.657 325.131 631.639 323.027 630.931 321.113C627.929 323.565 622.275 324.852 619.13 325.438C617.878 325.733 617.054 325.823 617.054 325.823Z" fill="#263238"/>
<path d="M619.172 325.474L620.069 327.615C625.903 326.731 629.899 325.326 631.472 323.293C631.397 322.56 631.218 321.841 630.943 321.155C627.97 323.599 622.318 324.887 619.172 325.473V325.474Z" fill="white"/>
<path d="M621.263 332.957C627.426 332.055 630.008 329.578 630.992 327.101C628.638 327.495 626.373 328.304 624.302 329.491C622.956 330.305 621.894 331.516 621.263 332.958V332.957Z" fill="#C15854"/>
<path opacity="0.3" d="M654.839 325.559C654.738 325.559 654.635 325.521 654.557 325.445C654.394 325.289 654.388 325.031 654.544 324.869C656.82 322.5 657.86 318.287 655.78 315.791C655.636 315.618 655.659 315.361 655.832 315.218C656.003 315.075 656.26 315.096 656.406 315.27C658.843 318.192 657.642 322.821 655.133 325.434C655.052 325.517 654.946 325.559 654.839 325.559Z" fill="black"/>
<path d="M666.496 381.5C666.496 381.5 681.409 432.974 679.626 440.169C677.843 447.363 652.321 469.668 652.321 469.668L660.284 477.878C660.284 477.878 692.582 459.871 698.034 445.981C703.486 432.092 689.681 388.374 689.681 388.374L666.496 381.5Z" fill="#B97964"/>
<path d="M678.059 358.804C656.935 356.126 656.032 392.032 667.89 419.587L706.031 405.422C706.031 405.422 690.329 360.359 678.059 358.804Z" fill="#FFC8C2"/>
<path d="M658.257 468.146C658.257 468.146 653.692 465.71 649.612 466.965C645.533 468.221 641.931 468.149 638.965 469.29C635.999 470.432 638.117 472.794 640.432 473.121C642.745 473.45 647.31 472.913 646.789 474.591C646.268 476.269 635.112 486.547 634.658 488.957C634.203 491.366 636.536 490.265 636.536 490.265C636.536 490.265 634.052 492.589 634.645 494.153C635.237 495.716 637.243 494.723 637.243 494.723C637.243 494.723 635.631 496.341 636.921 497.341C638.21 498.34 649.132 489.974 649.769 489.912C649.769 489.912 642.55 494.047 642.926 496.1C643.301 498.155 647.441 496.063 650.776 494.466C654.114 492.867 657.375 489.748 659.56 486.692C662.285 482.879 666.942 478.291 664.906 474.44C662.869 470.588 658.26 468.147 658.26 468.147L658.257 468.146Z" fill="#B97964"/>
<path d="M444.004 358.339C443.057 357.461 485.4 345.728 485.4 345.728L517.907 311.205C517.907 311.205 529.398 319.373 529.279 318.697C529.16 318.022 511.765 355.804 498.446 363.957C485.128 372.112 452.227 383.799 452.227 383.799L444.004 358.339Z" fill="#E9B376"/>
<path d="M524.884 289.994C524.884 289.994 528.792 288.727 530.061 290.977C531.329 293.229 530.468 296.854 530.468 296.854C530.468 296.854 535.041 295.646 533.882 301.339C533.882 301.339 538.591 303.698 535.2 307.638C535.2 307.638 531.733 318.837 527.728 319.837L516.56 316.748L516.242 299.28L524.884 289.994Z" fill="#E9B376"/>
<path d="M544.395 330.629C542.661 316.796 533.08 305.676 521.815 298.166C508.051 288.991 491.688 284.976 476.605 278.596C463.112 272.888 449.434 264.55 442.52 251.111C437.629 241.608 437.11 230.438 434.595 220.205C433.033 213.851 430.816 207.627 427.407 202.015C423.448 195.495 418.021 190.119 411.776 185.779C411.13 185.33 410.518 186.388 411.159 186.834C422.352 194.614 429.429 205.545 432.926 218.616C435.57 228.498 436.135 239.065 440.022 248.591C445.118 261.072 456.239 269.834 467.905 275.879C482.329 283.35 498.339 287.088 512.836 294.399C527.163 301.623 541.067 313.833 543.172 330.63C543.268 331.4 544.491 331.409 544.393 330.63L544.395 330.629Z" fill="#263238"/>
<path d="M515.847 309.904C515.847 309.904 512.825 303.775 513.639 299.851C514.453 295.928 521.069 291.368 521.918 287.13C522.766 282.893 522.912 283.29 524.949 283.897C526.986 284.504 526.942 290.105 525.918 293.05C524.894 295.995 523.083 296.815 523.819 298.806C524.555 300.799 527.857 307.277 522.077 310.017C516.298 312.758 515.847 309.904 515.847 309.904Z" fill="#E9B376"/>
<path d="M400.807 124.641C397.589 122.128 394.124 119.943 390.468 118.121L391.337 116.389C395.112 118.284 398.691 120.55 402.017 123.155L400.807 124.641Z" fill="#FFC8C2"/>
<path d="M381.416 114.565C370.756 111.362 359.26 112.511 349.447 117.763L348.498 116.044C358.777 110.495 370.842 109.27 382.026 112.64L381.416 114.565Z" fill="#FFC8C2"/>
<path d="M397.815 128.469C376.933 112.148 353.123 115.277 340.12 131.922C327.116 148.566 329.848 172.42 350.675 188.76C370.673 204.372 401.9 208.828 415.913 194.564C416.278 196.692 417.419 198.608 419.114 199.943L425.162 192.182C423.459 190.857 421.322 190.217 419.169 190.388C429.688 173.299 417.812 144.078 397.815 128.465V128.469Z" fill="#FFC8C2"/>
<path d="M416.252 195.309C416.086 195.37 415.904 195.371 415.736 195.314C415.305 195.184 415.061 194.73 415.191 194.298V194.295C415.324 193.872 416.527 190.027 419.069 189.559C419.516 189.478 419.946 189.769 420.037 190.215C420.119 190.658 419.826 191.083 419.381 191.165H419.375C418.037 191.414 417.016 193.908 416.757 194.771C416.685 195.02 416.498 195.222 416.252 195.309Z" fill="#263238"/>
<g opacity="0.3">
<path d="M372.302 130.775C366.626 125.157 355.64 125.442 346.714 132.872C343.305 136.25 340.693 142.631 339.91 147.365C339.125 152.099 339.29 153.93 339.824 158.699C340.366 163.534 341.987 169.727 344.249 174.036C346.867 179.028 351.475 183.013 356.897 184.552C362.32 186.09 368.486 185.045 372.897 181.533C377.305 178.022 379.721 172.052 378.668 166.515C377.989 162.945 376.022 159.778 374.448 156.504C372.874 153.229 371.655 149.51 372.592 145.999C373.353 143.151 375.479 140.69 375.614 137.745C375.734 135.098 374.186 132.639 372.304 130.777L372.302 130.775Z" fill="white"/>
</g>
<path d="M413.186 676.878C415.244 677.067 417.243 676.878 417.981 676.085C418.372 675.623 418.425 674.962 418.113 674.443C417.891 673.966 417.481 673.604 416.98 673.443C414.394 672.481 408.524 675.161 408.28 675.33C408.127 675.389 408.034 675.545 408.053 675.708C408.065 675.861 408.171 675.989 408.317 676.028C409.911 676.458 411.541 676.743 413.186 676.878ZM415.998 674.01C416.242 674.028 416.485 674.078 416.716 674.161C417.019 674.252 417.271 674.464 417.414 674.745C417.641 675.255 417.527 675.462 417.414 675.595C416.584 676.557 412.545 676.217 409.6 675.595C411.607 674.651 413.782 674.112 415.998 674.01Z" fill="#FFC8C2"/>
<path d="M408.392 675.991H408.561C410.562 675.312 414.696 672.216 414.562 670.329C414.562 669.894 414.279 669.329 413.26 669.14C412.504 668.986 411.72 669.148 411.09 669.593C408.92 671.084 408.089 675.255 408.052 675.519C408.036 675.652 408.084 675.786 408.184 675.877C408.234 675.942 408.309 675.983 408.391 675.989L408.392 675.991ZM412.884 669.876H413.11C413.789 670.008 413.809 670.291 413.809 670.366C413.809 671.48 411.034 673.953 408.977 674.952C409.314 673.147 410.204 671.491 411.524 670.215C411.92 669.94 412.404 669.819 412.884 669.874V669.876Z" fill="#FFC8C2"/>
<path d="M389.085 682.635L405.053 684.089L414.792 646.026L391.975 643.76L389.085 682.635Z" fill="#E9B376"/>
<path d="M406.903 673.612L389.464 672.027C388.804 671.97 388.192 672.377 387.992 673.008L383.557 686.918C383.157 688.147 383.829 689.467 385.058 689.868C385.232 689.925 385.413 689.961 385.595 689.975C391.899 690.428 397.429 690.579 405.356 691.296C414.603 692.126 412.15 693.013 422.984 694.164C429.533 694.843 431.401 687.502 428.646 686.898C416.096 684.142 415.114 680.198 410.641 675.196C409.634 674.225 408.303 673.66 406.904 673.611L406.903 673.612Z" fill="#263238"/>
<path d="M442.251 475.009C444.555 504.46 443.847 534.068 440.138 563.374C433.74 613.879 415.055 658.986 415.055 658.986L388.464 652.022C388.464 652.022 394.653 614.106 397.9 564.204C401.504 509.831 386.01 469.837 386.01 469.837L442.251 475.009Z" fill="#263238"/>
<path d="M289.471 629.525C290.622 631.242 291.982 632.714 293.113 632.751C293.724 632.748 294.266 632.364 294.473 631.789C294.683 631.307 294.683 630.76 294.473 630.28C293.567 627.675 287.773 624.844 287.527 624.732C287.397 624.641 287.223 624.641 287.093 624.732C286.98 624.846 286.943 625.015 286.998 625.166C287.685 626.694 288.512 628.154 289.471 629.526V629.525ZM293.473 629.883C293.615 630.08 293.73 630.296 293.813 630.524C293.939 630.82 293.939 631.153 293.813 631.449C293.567 631.941 293.323 631.996 293.152 631.978C291.887 631.978 289.585 628.618 288.245 625.92C290.23 626.895 292.006 628.248 293.473 629.902V629.883Z" fill="#FFC8C2"/>
<path d="M287.038 625.279L287.152 625.393C289.038 626.506 294.002 627.714 295.324 626.449C295.645 626.148 295.909 625.599 295.324 624.675C294.968 623.998 294.346 623.498 293.607 623.297C291.078 622.562 287.266 624.637 287.095 624.732C286.982 624.8 286.912 624.921 286.906 625.052C286.922 625.14 286.969 625.22 287.038 625.279ZM294.587 624.844L294.701 625.033C295.021 625.637 294.833 625.826 294.701 625.901C293.89 626.656 290.172 626.032 288.076 625.07C289.691 624.193 291.534 623.831 293.361 624.032C293.887 624.126 294.359 624.416 294.681 624.842L294.587 624.844Z" fill="#FFC8C2"/>
<path d="M269.693 614.596L278.733 627.846L312.755 611.802L301.097 592.654L269.693 614.596Z" fill="#E9B376"/>
<path d="M287.98 622.617L278.11 608.141C277.74 607.597 277.04 607.384 276.43 607.631L262.86 613.067C261.659 613.544 261.073 614.905 261.55 616.107C261.617 616.273 261.701 616.431 261.802 616.577C265.463 621.73 270.917 629.07 275.391 635.62C280.638 643.301 276.788 638.563 282.94 647.566C286.715 653.002 293.188 650.755 292.132 648.133C287.319 636.224 288.13 633.035 289.131 626.503C289.252 625.108 288.84 623.719 287.98 622.615V622.617Z" fill="#263238"/>
<path d="M411.941 472.253C411.941 472.253 400.184 519.438 377.855 560.732C353.414 606.028 304.117 620.372 304.117 620.372L288.792 597.139C288.792 597.139 321.141 572.961 337.183 545.162C351.961 492.958 356.867 467.272 356.867 467.272L411.939 472.253H411.941Z" fill="#263238"/>
<path d="M311.422 620.466C311.422 620.579 300.985 624.995 300.985 624.995L283.866 596.685L292.001 590.702L311.422 620.466Z" fill="#FFC8C2"/>
<path d="M420.208 654.192C420.34 654.192 417.056 665.139 417.056 665.139L384.348 660.364L384.915 650.267L420.208 654.192Z" fill="#FFC8C2"/>
<path d="M438.409 391.426C455.503 402.327 482.614 378.059 482.614 378.059L475.855 347.503C475.855 347.503 445.802 351.314 426.842 351.874C408.449 357.88 424.382 382.464 438.408 391.426H438.409Z" fill="#FFC8C2"/>
<path d="M453.387 371.431C454.274 386.529 454.891 428.61 456.487 480.196L351.207 472.724C351.754 460.607 367.57 419.653 363.739 365.146C363.119 357.028 369.195 349.945 377.312 349.325C377.499 349.31 377.686 349.3 377.875 349.292C382.084 349.141 386.746 349.103 391.313 349.292C403.461 349.658 415.578 350.717 427.606 352.463C432.229 353.313 436.721 354.445 440.571 355.54C447.804 357.548 452.957 363.938 453.387 371.431Z" fill="#FFC8C2"/>
<path d="M348.922 418.633C348.112 417.982 347.373 417.253 346.671 416.488C351.397 410.029 356.258 403.68 361.266 397.456C363.871 394.342 366.476 391.153 369.136 388.021L373.118 383.34L377.005 378.886L359.303 362.051C357.528 363.881 356.076 365.486 354.565 367.166C353.056 368.846 351.62 370.563 350.205 372.281C347.356 375.736 344.638 379.263 342.015 382.87C339.392 386.474 336.919 390.155 334.466 393.891C332.012 397.629 329.728 401.46 327.521 405.328L327.106 406.064L326.35 407.441C325.75 408.603 325.269 409.824 324.916 411.084C324.185 413.844 324.139 416.74 324.784 419.521C325.354 421.802 326.339 423.957 327.69 425.881C328.717 427.351 329.901 428.706 331.22 429.92C333.333 431.841 335.664 433.507 338.165 434.884C340.332 436.105 342.568 437.196 344.866 438.15C349.162 439.911 353.577 441.367 358.077 442.51C362.471 443.661 366.935 444.53 371.439 445.114L374.705 433.526C367.368 430.041 360.234 426.14 353.341 421.844C351.812 420.854 350.337 419.784 348.924 418.635L348.922 418.633Z" fill="#E9B376"/>
<path d="M375.062 349.538C354.735 349.538 335.183 381.963 335.183 381.963L355.244 414.388C355.244 414.388 368.361 399.968 380.931 384.624C393.218 369.601 391.746 349.538 375.062 349.538Z" fill="#FFC8C2"/>
<path d="M372.338 434.319C372.338 434.319 375.734 430.415 379.993 430.134C384.252 429.852 387.591 428.499 390.769 428.507C393.947 428.515 392.81 431.477 390.766 432.61C388.721 433.741 384.265 434.869 385.351 436.25C386.435 437.632 400.525 443.254 401.808 445.342C403.093 447.431 400.521 447.236 400.521 447.236C400.521 447.236 403.669 448.52 403.674 450.192C403.679 451.864 401.45 451.651 401.45 451.651C401.45 451.651 403.534 452.587 402.686 453.981C401.838 455.374 388.651 451.454 388.034 451.625C388.034 451.625 396.252 452.913 396.635 454.964C397.017 457.015 392.405 456.54 388.718 456.237C385.03 455.934 380.871 454.184 377.74 452.108C373.834 449.52 367.845 446.894 368.374 442.568C368.903 438.243 372.338 434.319 372.338 434.319Z" fill="#E9B376"/>
<path d="M419.589 338.544C419.35 342.222 420.587 345.844 423.029 348.607C423.464 349.061 423.918 349.536 424.413 349.971C425.18 350.637 426 351.237 426.865 351.77C426.669 352.133 426.461 352.486 426.243 352.83C421.505 360.284 411.386 362.148 403.91 357.443L393.323 350.782C396.323 344.118 397.009 343.469 394.008 336.805C392.55 333.401 390.546 330.256 388.078 327.495L411.562 328.701L422.256 329.235C420.713 332.112 419.802 335.288 419.588 338.546L419.589 338.544Z" fill="#E9B376"/>
<path opacity="0.2" d="M422.194 329.233L411.5 328.7L388.014 327.493C390.482 330.254 403.846 341.964 419.667 341.141C419.581 340.561 419.547 339.588 419.524 338.542C419.739 335.283 420.649 332.109 422.192 329.232L422.194 329.233Z" fill="black"/>
<path d="M415.298 264.592C415.298 264.592 441.745 277.025 422.388 302.689C400.521 331.723 415.298 264.592 415.298 264.592Z" fill="#263238"/>
<path d="M370.311 307.882C375.894 324.445 390.095 340.712 404.722 339.688C431.596 337.828 440.38 330.383 438.371 310.524C436.641 292.714 423.649 267.124 401.149 267.514C378.648 267.905 362.661 284.896 370.311 307.882Z" fill="#E9B376"/>
<path d="M420.715 275.182C413.413 279.969 404.946 282.676 396.223 283.018C396.223 283.018 386.359 287.298 391.552 298.298C396.744 309.297 389.472 321.481 392.858 336.927C392.858 336.927 371.805 336.6 360.788 303.677C352.767 279.687 371.581 264.817 393.488 259.7C411.819 255.42 428.049 265.284 420.716 275.184L420.715 275.182Z" fill="#263238"/>
<path d="M409.66 302.931C410.274 305.053 411.931 306.467 413.382 306.021C414.834 305.575 415.373 303.547 414.741 301.424C414.108 299.303 412.47 297.925 411.02 298.316C409.568 298.707 409.029 300.81 409.66 302.931Z" fill="#263238"/>
<path d="M426.391 297.05C426.987 299.078 428.568 300.418 429.89 300.009C431.212 299.601 431.751 297.645 431.212 295.617C430.673 293.588 429.035 292.266 427.694 292.639C426.354 293.012 425.796 295.021 426.391 297.05Z" fill="#263238"/>
<path d="M412.6 290.443C412.718 290.274 412.781 290.072 412.786 289.867C412.727 289.318 412.237 288.919 411.689 288.973C408.475 289.203 405.58 290.998 403.946 293.774C403.695 294.258 403.886 294.853 404.371 295.102L404.394 295.114C404.889 295.337 405.471 295.143 405.733 294.668C407.077 292.481 409.406 291.091 411.969 290.946C412.237 290.866 412.462 290.687 412.6 290.443Z" fill="#263238"/>
<path d="M429.331 286.424C429.514 286.321 429.668 286.175 429.778 285.995C429.984 285.481 429.747 284.895 429.239 284.674C426.3 283.353 422.901 283.555 420.138 285.214C419.69 285.533 419.575 286.15 419.878 286.609C420.207 287.041 420.811 287.153 421.273 286.87C423.493 285.59 426.201 285.486 428.513 286.591C428.797 286.642 429.091 286.582 429.331 286.424Z" fill="#263238"/>
<path d="M423.506 301.45L426.429 310.756C428.726 310.041 430.754 308.654 432.254 306.774C429.042 305.54 426.079 303.737 423.506 301.45Z" fill="#D58745"/>
<path d="M391.936 313.279C391.936 313.279 384.659 304.159 380.231 308.869C375.801 313.577 381.553 330.513 389.537 328.354C397.52 326.196 397.037 317.839 391.938 313.279H391.936Z" fill="#E9B376"/>
<path d="M427.879 314.731C427.075 317.289 426.451 319.902 426.018 322.547H424.604C418.183 322.547 415.298 320.371 413.883 318.007C413.26 316.862 412.916 315.588 412.879 314.285C412.84 313.535 412.908 312.783 413.084 312.052C416.472 314.098 422.39 314.601 425.665 314.731C427.08 314.749 427.879 314.731 427.879 314.731Z" fill="#263238"/>
<path d="M425.703 314.674L425.107 316.963C419.059 316.963 414.797 316.07 412.916 314.228C412.877 313.478 412.946 312.726 413.122 311.995C416.509 314.041 422.502 314.544 425.703 314.674Z" fill="white"/>
<path d="M424.641 322.547C418.22 322.547 415.336 320.371 413.921 318.007C416.358 318.077 418.764 318.575 421.03 319.477C422.523 320.102 423.785 321.175 424.641 322.547Z" fill="#C15854"/>
<path d="M415.15 258.469C420.081 252.346 417.103 247.303 417.103 247.303C417.103 247.303 425.906 254.022 423.86 263.7L429.685 258.005C429.685 258.005 435.081 283.633 396.185 283.018L387.067 272.372C390.678 265.058 410.219 264.592 415.152 258.471L415.15 258.469Z" fill="#263238"/>
<path d="M405.514 256.035C405.587 255 405.556 253.94 405.856 252.945C406.157 251.951 406.883 251 407.904 250.801C408.63 250.66 409.376 250.92 410.038 251.251C412.474 252.467 414.352 254.749 415.077 257.374C415.801 259.998 415.36 262.92 413.895 265.214L399.958 266.58C403.158 264.035 405.222 260.113 405.514 256.035Z" fill="#263238"/>
<path d="M214.387 311.341C214.979 313.28 216.485 314.536 217.74 314.148C218.995 313.761 219.542 311.867 218.973 309.974C218.403 308.081 216.874 306.78 215.619 307.167C214.364 307.555 213.794 309.425 214.387 311.341Z" fill="#263238"/>
<path d="M215.326 312.701C217.929 316.001 220.972 318.93 224.369 321.403C223.034 323.125 221.009 324.172 218.832 324.268L215.326 312.701Z" fill="#892B29"/>
<path d="M206.872 308.001C207.114 307.931 207.329 307.788 207.487 307.591C209.245 305.142 212.07 303.683 215.083 303.667C215.699 303.89 216.379 303.571 216.602 302.954C216.825 302.339 216.506 301.658 215.889 301.435C215.689 301.363 215.474 301.346 215.266 301.385C211.446 301.324 207.837 303.13 205.594 306.221C205.197 306.742 205.298 307.486 205.818 307.884L205.822 307.887C206.133 308.09 206.523 308.133 206.872 308.001Z" fill="#263238"/>
<path d="M181.315 344.834C181.149 356.629 179.085 370.291 171.679 375.553C171.679 375.553 173.744 388.281 197.975 390.658C224.602 393.225 212.215 379.457 212.215 379.457C200.918 373.432 201.82 364.777 205.499 355.506L188.791 340.847C185.919 338.068 181.363 340.509 181.315 344.836V344.834Z" fill="#9F5B53"/>
<path d="M165.817 324.24C172.16 341.168 174.942 351.41 186.76 357.502C204.508 366.627 224.378 352.004 223.466 333.479C222.646 316.802 212.425 291.936 192.668 290.407C172.912 288.878 159.474 307.335 165.817 324.239V324.24Z" fill="#9F5B53"/>
<path d="M206.334 321.841C206.334 321.841 213.589 337.81 205.193 346.821C196.798 355.832 174.898 356.492 169.582 351.931C164.267 347.369 143.279 329.368 151.332 305.095C159.386 280.821 184.822 284.815 184.822 284.815C184.161 277.469 203.643 280.046 210.442 286.913C217.24 293.78 201.91 299.757 201.91 299.757C201.91 299.757 217.195 307.011 206.334 321.841Z" fill="#263238"/>
<path d="M197.345 323.008C199.331 326.904 202.535 330.044 206.47 331.95C211.717 334.368 214.431 330.331 213.017 325.243C211.762 320.68 207.497 313.837 202.181 313.585C196.866 313.334 194.973 318.239 197.345 323.006V323.008Z" fill="#9F5B53"/>
<path d="M155.005 318.112C159.586 318.112 163.3 313.672 163.3 308.195C163.3 302.717 159.586 298.277 155.005 298.277C150.424 298.277 146.71 302.717 146.71 308.195C146.71 313.672 150.424 318.112 155.005 318.112Z" fill="#FFC8C2"/>
<path d="M152.532 323.021C152.072 314 154.067 312.929 153.823 305.972C146.378 300.468 135.617 301.393 127.568 305.972C119.52 310.552 113.667 318.13 108.443 325.775C105.153 330.589 101.32 335.975 95.5457 336.782C93.3642 337.088 91.1517 336.675 88.949 336.676C86.7464 336.676 84.3532 337.206 82.9694 338.917C80.5046 341.963 82.6536 346.563 85.4358 349.323C90.5347 354.379 97.7435 357.236 104.921 357.048C111.591 356.872 118.123 354.042 122.89 349.381C121.919 350.918 122.131 353.253 123.406 354.671C125.039 356.486 127.748 356.96 130.164 356.606C137.603 355.517 142.75 347.032 140.964 339.729C142.276 342.047 146.357 343.12 148.956 342.524C152.726 341.658 154.728 338.321 154.989 335.674C155.249 333.022 152.671 325.684 152.535 323.022L152.532 323.021Z" fill="#263238"/>
<path d="M302.867 436.904C309.481 425.782 309.817 412.26 306.281 400.048C302.336 386.423 293.753 374.851 287.222 362.438C280.461 349.588 275.935 334.558 280.275 320.164C283.114 310.746 288.871 302.438 292.845 293.497C298.103 281.668 300.042 269.241 296.71 256.576C296.51 255.817 295.332 256.138 295.533 256.9C298.652 268.751 297.087 280.502 292.319 291.669C288.588 300.409 283.228 308.418 279.935 317.347C275.347 329.783 277.438 343.237 282.439 355.201C287.847 368.141 296.527 379.382 302.126 392.23C308.202 406.169 309.856 422.757 301.812 436.287C301.41 436.965 302.465 437.578 302.867 436.904Z" fill="#263238"/>
<path d="M329.745 193.533C326.235 165.408 305.831 149.811 283.417 152.612C261.001 155.412 245.071 175.55 248.524 203.649C251.897 230.572 272.2 257.513 293.584 257.279C292.255 259.166 291.673 261.479 291.951 263.771L302.39 262.454C302.098 260.165 300.962 258.067 299.202 256.574C320.068 251.561 333.118 220.455 329.745 193.533Z" fill="#FFC8C2"/>
<path d="M293.276 258.1C293.105 258.02 292.965 257.883 292.88 257.714C292.651 257.29 292.81 256.76 293.234 256.532H293.237C293.657 256.31 297.47 254.303 299.749 255.866C300.149 256.141 300.257 256.688 299.988 257.093C299.715 257.491 299.173 257.592 298.775 257.318L298.769 257.313C297.567 256.493 294.912 257.611 294.064 258.069C293.821 258.204 293.527 258.213 293.274 258.098L293.276 258.1Z" fill="#263238"/>
<path opacity="0.3" d="M329.745 193.533C326.235 165.408 305.831 149.811 283.417 152.612C261.001 155.412 245.071 175.55 248.524 203.649C251.897 230.572 272.2 257.513 293.584 257.279C292.255 259.166 291.673 261.479 291.951 263.771L302.39 262.454C302.098 260.165 300.962 258.067 299.202 256.574C320.068 251.561 333.118 220.455 329.745 193.533Z" fill="black"/>
<path d="M169.397 373.958C168.423 369.982 167.409 365.569 171.166 364.852C175.342 364.056 197.012 366.104 204.089 370.041C208.05 372.139 209.66 376.981 207.747 381.035L169.397 373.956V373.958Z" fill="#263238"/>
<path d="M151.814 456.392L140.203 453.549L130.78 454.824L134.119 460.766C136.446 470.169 146.246 472.973 146.246 472.973L150.342 475.14C152.213 476.134 154.525 475.687 155.889 474.067L160.363 468.818C161.969 466.902 161.72 464.045 159.806 462.436L153.623 457.307C153.1 456.864 152.48 456.549 151.814 456.392Z" fill="#9F5B53"/>
<path d="M193.229 469.015C193.229 469.015 182.979 527.953 161.011 568.67C147.362 593.28 71.9529 623.234 71.9529 623.234L65.6313 612.816C65.6313 612.816 110.584 571.712 132.84 558.907C145.799 520.722 144.243 464.401 144.243 464.401L193.231 469.013L193.229 469.015Z" fill="#9F5B53"/>
<path d="M76.7029 629C77.976 630.571 79.4071 631.922 80.5401 631.862C81.1311 631.81 81.6293 631.4 81.7921 630.828C81.9793 630.356 81.9793 629.829 81.7921 629.357C80.6981 626.851 74.7933 624.505 74.5556 624.406C74.4286 624.323 74.2642 624.323 74.1372 624.406C74.0591 624.535 74.0591 624.696 74.1372 624.823C74.8747 626.283 75.7327 627.68 76.7013 628.999L76.7029 629ZM80.6785 629C80.8364 629.184 80.9651 629.393 81.0562 629.616C81.1832 629.9 81.1832 630.226 81.0562 630.511C80.8576 631.008 80.6183 631.068 80.4604 631.087C79.2084 631.087 76.6834 628.046 75.171 625.5C77.219 626.299 79.0863 627.502 80.659 629.039L80.6785 629Z" fill="#FFC8C2"/>
<path d="M74.0594 624.984L74.1782 625.083C76.0472 626.037 81.0777 626.853 82.2906 625.521C82.5689 625.204 82.7871 624.647 82.2906 623.771C81.8868 623.138 81.2389 622.698 80.5014 622.558C77.9568 622.021 74.3573 624.347 74.2189 624.447C74.105 624.522 74.0382 624.649 74.0399 624.785C74.0268 624.852 74.035 624.92 74.0594 624.984ZM81.4749 624.01L81.5938 624.189C81.9715 624.746 81.7924 624.945 81.7322 625.025C80.9963 625.819 77.2991 625.502 75.1713 624.707C76.6886 623.721 78.4729 623.227 80.2816 623.296C80.7521 623.382 81.1754 623.638 81.4749 624.012V624.01Z" fill="#FFC8C2"/>
<path d="M74.735 622.301L66.4647 611.942C65.5986 610.866 64.0927 610.55 62.8669 611.187L51.9527 616.893C50.5429 617.609 49.9812 619.333 50.6976 620.741C50.7969 620.935 50.9173 621.119 51.0573 621.285C54.4973 625.42 58.7317 630.211 63.3846 636.017C69.0907 643.154 64.9556 638.801 71.6548 647.17C75.6304 652.22 81.9535 649.536 80.7211 647.051C75.3129 636.116 75.6515 632.855 76.1285 626.732C76.1546 625.143 75.6662 623.589 74.7366 622.299L74.735 622.301Z" fill="#263238"/>
<path d="M214.74 471.082C220.226 499.763 213.234 530.846 209.618 559.822C203.336 609.524 186.501 669.755 186.501 669.755L174.001 668.673C177.965 613.506 168.095 622.268 176.744 571.712C171.178 526.382 166.747 466.788 166.747 466.788L214.74 471.082Z" fill="#9F5B53"/>
<path d="M193.307 670.413C195.295 670.592 197.283 670.413 198.038 669.638C198.414 669.173 198.463 668.523 198.157 668.009C197.926 667.553 197.527 667.204 197.043 667.035C194.499 666.081 188.713 668.725 188.475 668.844C188.329 668.898 188.237 669.046 188.257 669.202C188.26 669.358 188.364 669.497 188.516 669.541C190.087 669.961 191.689 670.252 193.307 670.413ZM196.07 667.59C196.312 667.611 196.552 667.659 196.786 667.729C197.084 667.825 197.33 668.041 197.462 668.324C197.701 668.801 197.581 669.041 197.462 669.16C196.646 670.114 192.671 669.777 189.787 669.16C191.76 668.237 193.895 667.704 196.07 667.589V667.59Z" fill="#FFC8C2"/>
<path d="M188.596 669.539H188.755C190.743 668.844 194.72 665.782 194.72 663.992C194.72 663.554 194.442 663.019 193.428 662.819C192.692 662.672 191.928 662.838 191.321 663.276C189.154 664.727 188.358 668.922 188.319 669.101C188.291 669.233 188.337 669.37 188.438 669.459C188.482 669.502 188.536 669.529 188.596 669.539ZM193.009 663.574H193.227C193.903 663.693 193.923 663.971 193.923 664.051C193.923 665.145 191.199 667.59 189.151 668.564C189.496 666.791 190.377 665.166 191.676 663.911C192.052 663.608 192.526 663.454 193.008 663.473V663.572L193.009 663.574Z" fill="#FFC8C2"/>
<path d="M187.124 667.213L172.63 665.9C171.531 665.795 170.51 666.475 170.184 667.53L166.209 680.473C165.83 681.7 166.517 683.002 167.742 683.382C167.891 683.427 168.042 683.458 168.197 683.475C173.903 683.891 177.74 683.913 185.473 684.608C194.578 685.443 192.172 686.317 202.829 687.431C209.291 688.106 211.119 680.87 208.395 680.274C196.467 677.669 195.174 673.952 191.138 669.3C190.062 668.186 188.654 667.453 187.124 667.213Z" fill="#263238"/>
<path d="M153.268 460.282C135.215 472.43 124.943 516.409 98.5039 541.581C66.2956 560.429 95.3603 574.48 134.248 579.297C187.192 585.86 210.274 601.555 215.165 594.75C228.047 576.775 227.049 488.455 215.961 468.395C171.189 465.508 153.27 460.282 153.27 460.282H153.268Z" fill="#FFC8C2"/>
<path d="M157.732 370.884C156.322 371.858 112.304 398.746 117.327 422.648C122.349 446.55 132.059 458.694 132.059 458.694L141.592 453.321L137.328 420.118L159.922 402.27L157.73 370.886L157.732 370.884Z" fill="#FFC8C2"/>
<path d="M286.59 389.315C286.59 389.315 285.447 382.806 287.265 379.384C289.084 375.962 296.462 373.523 298.399 369.818C300.335 366.112 300.364 366.523 302.09 367.638C303.816 368.753 302.258 373.94 300.508 376.396C298.758 378.853 296.856 379.123 296.999 381.171C297.143 383.221 298.451 390.129 292.343 391.107C286.235 392.084 286.59 389.315 286.59 389.315Z" fill="#9F5B53"/>
<path d="M300.378 373.282C300.378 373.282 304.348 373.165 304.916 375.599C305.483 378.033 303.7 381.165 303.7 381.165C303.7 381.165 308.273 381.284 305.654 386.254C305.654 386.254 309.387 389.72 305.17 392.458C305.17 392.458 298.914 401.914 294.925 401.757L285.395 395.862L289.836 379.56L300.376 373.28L300.378 373.282Z" fill="#9F5B53"/>
<path d="M227.047 387.393C227.047 412.484 219.562 447.418 215.113 469.454L153.268 466.789C153.268 439.714 154.665 438.055 151.583 382.387C151.199 375.459 156.505 369.529 163.433 369.145C163.658 369.132 163.883 369.126 164.109 369.126C164.109 369.126 191.406 371.651 209.657 374.592C217.644 375.836 225.612 379.437 227.047 387.392V387.393Z" fill="#FFC8C2"/>
<path opacity="0.2" d="M226.053 401.267L209.698 392.447C214.191 403.569 216.493 416.746 223.222 426.677C223.747 419.478 226.408 408.476 226.053 401.267Z" fill="black"/>
<path d="M207.344 398.606C207.344 398.606 251.534 437.91 264.834 434.659C278.133 431.408 295.938 402.418 295.938 402.418L286.693 391.503L262.893 412.149C262.893 412.149 221.74 379.231 221.107 378.744C220.474 378.257 195.661 377.329 207.344 398.606Z" fill="#FFC8C2"/>
<path opacity="0.2" d="M153.268 407.526L150.911 384.237L146.434 413.129L153.268 407.526Z" fill="black"/>
</svg>
