<svg width="215" height="44" viewBox="0 0 215 44" fill="none" xmlns="http://www.w3.org/2000/svg">
<path d="M22.9641 2.36119C23.5991 2.05879 24.3954 1.72614 24.7281 1.63542C25.1111 1.53462 25.6454 1.48422 26.1897 1.50438C26.6634 1.51446 27.5807 1.5951 28.2359 1.68582C28.8811 1.77654 29.6572 1.90758 29.9395 1.98823C30.2318 2.06887 30.8568 2.26039 31.3305 2.41159C31.9017 2.60647 32.5065 2.91895 33.1449 3.34904C33.6691 3.70184 34.4856 4.31673 34.9594 4.71993C35.4331 5.11305 35.9472 5.5969 36.1085 5.78842C36.2698 5.97994 36.5419 6.42347 36.7234 6.78635C37.0359 7.41132 37.056 7.48188 36.9955 8.19756C36.9451 8.72173 36.9754 9.16525 37.0762 9.63902C37.1568 10.012 37.2576 10.3144 37.298 10.3144C37.3484 10.3144 37.8423 10.1934 38.4068 10.0523C38.9813 9.9011 39.7575 9.71966 40.1506 9.6491C40.5437 9.57854 41.2393 9.51806 41.713 9.51806C42.1868 9.51806 43.0033 9.57854 43.5274 9.6491C44.0516 9.72974 44.8479 9.86078 45.2915 9.96158C45.735 10.0624 46.4809 10.3245 46.9547 10.5563C47.4284 10.7781 48.1441 11.1813 48.5373 11.4434C48.9405 11.7155 49.515 12.1691 49.7973 12.4715C50.0896 12.7739 50.4726 13.3082 50.6541 13.661C50.8557 14.0642 50.9968 14.5178 51.0371 14.9008L51.0436 14.9541C51.0817 15.2693 51.1194 15.5805 51.148 15.6568C51.1682 15.7375 51.2085 16.2616 51.2387 16.816C51.269 17.5418 51.2488 17.8442 51.1581 17.8946C51.0674 17.9551 51.0674 17.9753 51.1581 17.9753C51.2387 17.9753 51.2891 18.1164 51.2891 18.3583C51.2891 18.5599 51.1984 19.0941 51.0875 19.5377C50.9666 19.9812 50.8658 20.4146 50.8557 20.4953C50.8456 20.6062 50.9867 20.6566 51.4403 20.717C51.773 20.7574 52.3879 20.8783 52.8011 20.9892C53.2144 21.1001 53.6983 21.2311 53.8595 21.2815C54.0208 21.3319 54.6156 21.5436 55.17 21.7553C55.7244 21.967 56.3594 22.2593 56.5812 22.4105C56.8029 22.5617 57.1961 22.9548 57.4481 23.2774C57.7001 23.61 58.073 24.1241 58.2545 24.4265C58.446 24.7289 58.7081 25.2531 58.8391 25.5857C58.9702 25.9184 59.2322 26.503 59.4036 26.8961C59.585 27.2893 59.7866 27.8034 59.8572 28.0554C59.9378 28.3174 59.9983 29.1138 59.9983 29.9202C60.0084 31.16 59.9782 31.412 59.7665 32.037C59.6354 32.4301 59.3935 32.9946 59.2222 33.297C59.0609 33.5994 58.7988 34.053 58.6375 34.305C58.4863 34.557 57.9924 35.0711 57.5388 35.4642C57.0852 35.8573 56.2989 36.4521 55.7949 36.8049C55.2808 37.1577 54.666 37.5508 54.414 37.6718C54.1619 37.8028 53.3656 38.1254 51.3395 38.8915L49.1219 38.8814C47.6603 38.8814 46.7128 38.831 46.3499 38.7503C46.0475 38.6697 45.2713 38.4177 44.6363 38.1758C44.0012 37.9338 43.0033 37.5004 42.4186 37.2081C41.834 36.9158 41.33 36.6738 41.2997 36.6738C41.2594 36.6738 40.9268 37.1274 40.5538 37.6818C40.1809 38.2363 39.8281 38.7302 39.7676 38.7907C39.7004 38.8579 39.697 38.8411 39.7575 38.7403C39.818 38.6294 39.8079 38.6092 39.7172 38.6697C39.6567 38.71 39.5458 38.8411 39.4753 38.9721C39.3644 39.1838 39.3744 39.1838 39.5559 39.0427C39.6567 38.962 39.6063 39.0527 39.445 39.2342C39.2837 39.4156 38.8704 39.7785 38.5378 40.0305C38.2052 40.2926 37.3685 40.7563 36.673 41.0688C35.9775 41.3712 35.0299 41.7542 34.5562 41.8953C34.0824 42.0364 33.2861 42.228 32.7921 42.3086C32.0865 42.4296 31.6128 42.4397 30.6753 42.3792C30.01 42.3288 29.1734 42.2179 28.8105 42.1372C28.4476 42.0465 27.863 41.8651 27.5001 41.734C27.1372 41.5929 26.5526 41.3208 26.1897 41.1091C25.8268 40.9075 25.3934 40.6353 25.2321 40.5043C25.0708 40.3732 24.6777 40.0305 24.3652 39.7281C24.0628 39.4358 23.7604 39.1031 23.6999 38.9923C23.5908 38.7939 23.5598 38.8005 21.9177 39.1462L21.8351 39.1636C20.8775 39.3753 19.3151 39.6575 18.3776 39.7987C17.4402 39.9398 16.0088 40.1212 15.2024 40.2119C14.396 40.2926 13.015 40.3531 12.128 40.3531C11.2409 40.3531 9.73897 40.2825 8.80152 40.1918C7.86407 40.1111 6.6847 39.9499 6.1807 39.839C5.67669 39.7281 4.81988 39.4559 4.26548 39.2342C3.71107 39.0023 3.02562 38.6999 2.75346 38.5588C2.47122 38.4076 1.95714 38.0548 1.59425 37.7826C1.23137 37.5004 0.838244 37.1375 0.717283 36.9662C0.596322 36.8049 0.435041 36.4924 0.3544 36.2706C0.273759 36.0489 0.152798 35.4138 0.0822373 34.8594C0.0116766 34.2949 -0.0185637 33.3877 0.0116766 32.793C0.0419169 32.0773 0.132638 31.5431 0.273759 31.1298C0.39472 30.7971 0.576162 30.4443 0.666883 30.3435C0.757604 30.2427 0.808004 30.1621 0.757604 30.1722C0.717283 30.1722 0.848325 30.0008 1.03985 29.7992C1.24145 29.5875 1.47329 29.3053 1.55393 29.1642C1.63457 29.023 2.00754 28.7206 2.3805 28.4888C2.75346 28.257 3.48931 27.8638 4.01347 27.6118C4.53764 27.3497 5.03156 27.1481 5.09204 27.1481C5.16261 27.1481 5.22309 27.128 5.22309 27.0977C5.22309 27.0675 5.13237 26.9264 5.03156 26.7752C4.92068 26.6139 4.73924 26.2913 4.62836 26.0393C4.51748 25.7873 4.3562 25.1724 4.26548 24.6785C4.17476 24.1846 4.1042 23.3177 4.1042 22.7633C4.11428 22.2089 4.18484 21.3924 4.27556 20.9489C4.36628 20.5054 4.6082 19.7393 4.8098 19.2453C5.0114 18.7514 5.25333 18.3079 5.34405 18.2676C5.44485 18.2172 5.50533 18.1365 5.47509 18.0761C5.44485 18.0156 5.45493 17.9652 5.50533 17.9551C5.54565 17.9349 5.73717 17.7233 5.92869 17.4713C6.12021 17.2193 6.57382 16.6749 6.9367 16.2616C7.30967 15.8484 7.77335 15.425 7.97495 15.3343C8.18663 15.2335 8.36808 15.1125 8.39832 15.052C8.42856 14.9916 8.82168 14.7698 9.27528 14.5581C9.73897 14.3363 10.5655 14.0037 11.1199 13.8223C11.9868 13.54 12.2691 13.4896 13.136 13.4896C13.6904 13.4896 14.1742 13.4493 14.2145 13.3888C14.2549 13.3283 14.2952 13.157 14.2952 12.9856C14.2952 12.8142 14.4665 12.1893 14.6883 11.5744C14.9 10.9595 15.2427 10.1027 15.4443 9.65918C15.6459 9.21565 16.0793 8.42941 16.3918 7.90524C16.7043 7.38108 17.3293 6.55451 17.7728 6.0505C18.2163 5.55658 18.9421 4.89129 19.3755 4.57881C19.809 4.26633 20.4743 3.80264 20.8372 3.53048C21.2 3.2684 21.573 3.02648 21.6536 2.98615C21.7343 2.95591 22.329 2.67367 22.9641 2.36119Z" fill="#F2F1F1"/>
<path d="M18.6801 24.2551C18.801 24.0938 19.0631 23.9225 19.2849 23.8519C19.5066 23.7813 19.9804 23.741 20.3433 23.7713C20.7667 23.7914 21.0791 23.8721 21.2404 23.993C21.3715 24.0938 21.563 24.2854 21.6739 24.4265C21.815 24.5978 21.8553 24.7591 21.815 24.9506C21.7847 25.1119 21.6033 25.3942 21.4319 25.5958C21.2505 25.7974 20.9783 26.0292 20.8271 26.0998C20.6659 26.1804 20.3332 26.2409 20.0711 26.2409C19.799 26.2308 19.4361 26.1502 19.2446 26.0594C19.053 25.9687 18.8111 25.7772 18.7103 25.6361C18.5994 25.495 18.5087 25.2026 18.4986 24.9607C18.4886 24.6785 18.549 24.4466 18.6801 24.2551Z" fill="#F4C0B9"/>
<path d="M37.2375 24.6482C37.3686 24.4668 37.5903 24.2753 37.7113 24.2249C37.8323 24.1745 38.1145 24.1342 38.3363 24.1342C38.558 24.1241 38.9008 24.2047 39.0923 24.3055C39.2838 24.3962 39.5056 24.5978 39.5963 24.749C39.7374 24.991 39.7273 25.0514 39.5459 25.4446C39.435 25.6764 39.2032 25.999 39.0419 26.1602C38.7899 26.4022 38.6588 26.4425 38.2355 26.4425C37.8625 26.4425 37.6307 26.3719 37.3484 26.1905C37.0057 25.9586 36.9755 25.8982 36.9755 25.4546C36.9755 25.1119 37.046 24.8902 37.2375 24.6482Z" fill="#F4C0B9"/>
<path d="M22.3894 22.219C22.47 21.9972 22.6414 21.8057 22.8631 21.6948C23.0547 21.5839 23.3369 21.5033 23.4881 21.5033C23.6494 21.5033 23.8812 21.5739 24.0223 21.6545C24.2139 21.7654 24.2743 21.8863 24.2743 22.1585C24.2743 22.35 24.2139 22.6625 24.1433 22.8339C24.0627 23.0153 23.8812 23.2472 23.7401 23.3379C23.5486 23.4588 23.347 23.4992 23.095 23.4689C22.8833 23.4387 22.6313 23.3379 22.5406 23.2472C22.4498 23.1464 22.349 22.9548 22.3188 22.8137C22.2886 22.6726 22.3188 22.4105 22.3894 22.219Z" fill="#667D76"/>
<path d="M35.3221 22.5214C35.4129 22.3903 35.5842 22.219 35.6951 22.1484C35.8161 22.0779 35.9773 22.0174 36.0479 22.0073C36.1084 22.0073 36.3705 22.1081 36.6325 22.2291C36.9349 22.3903 37.1063 22.5415 37.1466 22.7129C37.1869 22.8742 37.1365 23.0859 37.0055 23.3177C36.8845 23.5092 36.6527 23.7512 36.4813 23.8419C36.2293 23.9931 36.0983 24.0032 35.8161 23.9225C35.6245 23.862 35.3927 23.7209 35.312 23.5899C35.2314 23.4689 35.1608 23.227 35.1608 23.0657C35.1709 22.9044 35.2415 22.6524 35.3221 22.5214Z" fill="#667D76"/>
<path d="M27.1371 25.4345C27.1673 25.1321 27.2681 24.7793 27.3488 24.6483C27.4697 24.487 27.5907 24.4265 27.7822 24.4568C28.0241 24.4971 28.0745 24.5676 28.2056 25.0817C28.3467 25.6261 28.3971 25.6865 28.8104 25.9083C29.0624 26.0393 29.4354 26.1401 29.637 26.1401C29.8486 26.1401 30.1813 26.0696 30.3728 25.9889C30.5643 25.9083 30.7659 25.747 30.8264 25.6361C30.8869 25.5253 30.9272 25.3438 30.9272 25.2329C30.9272 25.1221 30.9877 24.9204 31.0482 24.7793C31.1187 24.6281 31.2397 24.5475 31.3002 24.5777C31.3707 24.608 31.4111 24.5878 31.3808 24.5273C31.3506 24.4668 31.4211 24.4265 31.532 24.4265C31.6429 24.4265 31.8445 24.487 31.9856 24.5475C32.1267 24.618 32.2578 24.7188 32.2779 24.7793C32.2981 24.8398 32.2578 25.1523 32.1973 25.4849C32.1267 25.8176 31.9755 26.251 31.8647 26.4425C31.7437 26.6341 31.5421 26.8861 31.4111 27.007C31.28 27.1179 30.9978 27.2893 30.776 27.3901C30.4635 27.5312 30.1813 27.5614 29.516 27.5312C28.8003 27.501 28.5685 27.4405 28.1149 27.1885C27.7117 26.9768 27.5101 26.7752 27.3286 26.4425C27.127 26.0595 27.0968 25.8982 27.1371 25.4345Z" fill="#667D76"/>
<path d="M82.848 31.6496C80.72 31.6496 79.016 31.2496 77.736 30.4496C76.456 29.6336 75.816 28.3936 75.816 26.7296C75.816 25.8496 75.968 25.1776 76.272 24.7136C76.576 24.2496 77.024 24.0176 77.616 24.0176C78.048 24.0176 78.4 24.1296 78.672 24.3536C78.944 24.5776 79.08 24.8656 79.08 25.2176C79.08 25.5376 79.056 25.8176 79.008 26.0576C79.008 26.1216 78.992 26.2336 78.96 26.3936C78.944 26.5536 78.936 26.7216 78.936 26.8976C78.936 27.6176 79.296 28.1536 80.016 28.5056C80.752 28.8576 81.776 29.0336 83.088 29.0336C84.448 29.0336 85.512 28.7936 86.28 28.3136C87.048 27.8176 87.432 27.1296 87.432 26.2496C87.432 25.7056 87.256 25.2416 86.904 24.8576C86.552 24.4576 86.112 24.1296 85.584 23.8736C85.056 23.6016 84.312 23.2736 83.352 22.8896C82.12 22.4096 81.112 21.9536 80.328 21.5216C79.56 21.0896 78.896 20.5056 78.336 19.7696C77.792 19.0176 77.52 18.0896 77.52 16.9856C77.52 15.8336 77.824 14.8096 78.432 13.9136C79.056 13.0176 79.944 12.3216 81.096 11.8256C82.264 11.3296 83.632 11.0816 85.2 11.0816C86.368 11.0816 87.44 11.2576 88.416 11.6096C89.392 11.9456 90.168 12.4656 90.744 13.1696C91.336 13.8736 91.632 14.7376 91.632 15.7616C91.632 16.7696 91.48 17.5296 91.176 18.0416C90.872 18.5536 90.424 18.8096 89.832 18.8096C89.416 18.8096 89.064 18.6816 88.776 18.4256C88.504 18.1696 88.368 17.8656 88.368 17.5136C88.368 17.2096 88.392 16.9296 88.44 16.6736C88.488 16.1936 88.512 15.8896 88.512 15.7616C88.512 15.0896 88.184 14.5776 87.528 14.2256C86.872 13.8736 86.056 13.6976 85.08 13.6976C83.704 13.6976 82.648 13.9536 81.912 14.4656C81.192 14.9616 80.832 15.6656 80.832 16.5776C80.832 17.1856 81.016 17.7056 81.384 18.1376C81.768 18.5696 82.24 18.9296 82.8 19.2176C83.36 19.5056 84.144 19.8496 85.152 20.2496C86.368 20.7456 87.344 21.1936 88.08 21.5936C88.816 21.9936 89.44 22.5376 89.952 23.2256C90.48 23.9136 90.744 24.7616 90.744 25.7696C90.744 27.6576 90.024 29.1136 88.584 30.1376C87.16 31.1456 85.248 31.6496 82.848 31.6496ZM110.339 24.1616C110.387 24.1456 110.467 24.1376 110.579 24.1376C110.819 24.1376 111.003 24.2176 111.131 24.3776C111.259 24.5376 111.323 24.7536 111.323 25.0256C111.323 25.5216 111.227 25.9136 111.035 26.2016C110.843 26.4736 110.555 26.6736 110.171 26.8016C109.435 27.0416 108.651 27.1616 107.819 27.1616C107.115 27.1616 106.451 27.0656 105.827 26.8736C105.363 27.6256 104.851 28.4016 104.291 29.2016C103.651 30.1136 103.099 30.7376 102.635 31.0736C102.187 31.4096 101.675 31.5776 101.099 31.5776C100.459 31.5776 99.9714 31.3296 99.6354 30.8336C99.3154 30.3376 99.1154 29.5216 99.0354 28.3856L98.9154 26.6336C98.4194 27.9776 97.9714 29.0016 97.5714 29.7056C97.1874 30.4096 96.7954 30.8976 96.3954 31.1696C96.0114 31.4416 95.5554 31.5776 95.0274 31.5776C94.3714 31.5776 93.8514 31.3216 93.4674 30.8096C93.0994 30.2976 92.8674 29.4896 92.7714 28.3856C92.5794 26.1456 92.4834 24.1856 92.4834 22.5056V21.6656C92.4994 21.1376 92.6434 20.7696 92.9154 20.5616C93.1874 20.3536 93.5954 20.2496 94.1394 20.2496C94.5554 20.2496 94.8594 20.3456 95.0514 20.5376C95.2594 20.7136 95.3634 21.0176 95.3634 21.4496C95.3634 23.2896 95.4754 25.6816 95.6994 28.6256C96.7874 26.3376 97.7874 23.9536 98.6994 21.4736C98.8754 20.9936 99.0834 20.6736 99.3234 20.5136C99.5794 20.3376 99.8834 20.2496 100.235 20.2496C100.667 20.2496 100.963 20.3376 101.123 20.5136C101.299 20.6896 101.387 21.0016 101.387 21.4496C101.387 23.2896 101.499 25.6816 101.723 28.6256C102.683 27.2016 103.403 26.0656 103.883 25.2176C103.643 24.7536 103.523 24.2016 103.523 23.5616C103.523 23.0176 103.643 22.4896 103.883 21.9776C104.123 21.4656 104.451 21.0496 104.867 20.7296C105.283 20.4096 105.755 20.2496 106.283 20.2496C106.747 20.2496 107.123 20.4176 107.411 20.7536C107.699 21.0736 107.843 21.5456 107.843 22.1696C107.843 22.8896 107.651 23.7136 107.267 24.6416C107.875 24.6096 108.683 24.4896 109.691 24.2816L110.339 24.1616ZM119.704 26.1056C119.912 26.1056 120.072 26.2016 120.184 26.3936C120.312 26.5856 120.376 26.8496 120.376 27.1856C120.376 27.8256 120.224 28.3216 119.92 28.6736C119.328 29.3936 118.488 30.0576 117.4 30.6656C116.328 31.2736 115.176 31.5776 113.944 31.5776C112.264 31.5776 110.96 31.1216 110.032 30.2096C109.104 29.2976 108.64 28.0496 108.64 26.4656C108.64 25.3616 108.872 24.3376 109.336 23.3936C109.8 22.4336 110.44 21.6736 111.256 21.1136C112.088 20.5536 113.024 20.2736 114.064 20.2736C114.992 20.2736 115.736 20.5536 116.296 21.1136C116.856 21.6576 117.136 22.4016 117.136 23.3456C117.136 24.4496 116.736 25.4016 115.936 26.2016C115.152 26.9856 113.816 27.6096 111.928 28.0736C112.328 28.8096 113.088 29.1776 114.208 29.1776C114.928 29.1776 115.744 28.9296 116.656 28.4336C117.584 27.9216 118.384 27.2576 119.056 26.4416C119.248 26.2176 119.464 26.1056 119.704 26.1056ZM113.656 22.6256C113.064 22.6256 112.56 22.9696 112.144 23.6576C111.744 24.3456 111.544 25.1776 111.544 26.1536V26.2016C112.488 25.9776 113.232 25.6416 113.776 25.1936C114.32 24.7456 114.592 24.2256 114.592 23.6336C114.592 23.3296 114.504 23.0896 114.328 22.9136C114.168 22.7216 113.944 22.6256 113.656 22.6256ZM128.886 26.1056C129.094 26.1056 129.254 26.2016 129.366 26.3936C129.494 26.5856 129.558 26.8496 129.558 27.1856C129.558 27.8256 129.406 28.3216 129.102 28.6736C128.51 29.3936 127.67 30.0576 126.582 30.6656C125.51 31.2736 124.358 31.5776 123.126 31.5776C121.446 31.5776 120.142 31.1216 119.214 30.2096C118.286 29.2976 117.822 28.0496 117.822 26.4656C117.822 25.3616 118.054 24.3376 118.518 23.3936C118.982 22.4336 119.622 21.6736 120.438 21.1136C121.27 20.5536 122.206 20.2736 123.246 20.2736C124.174 20.2736 124.918 20.5536 125.478 21.1136C126.038 21.6576 126.318 22.4016 126.318 23.3456C126.318 24.4496 125.918 25.4016 125.118 26.2016C124.334 26.9856 122.998 27.6096 121.11 28.0736C121.51 28.8096 122.27 29.1776 123.39 29.1776C124.11 29.1776 124.926 28.9296 125.838 28.4336C126.766 27.9216 127.566 27.2576 128.238 26.4416C128.43 26.2176 128.646 26.1056 128.886 26.1056ZM122.838 22.6256C122.246 22.6256 121.742 22.9696 121.326 23.6576C120.926 24.3456 120.726 25.1776 120.726 26.1536V26.2016C121.67 25.9776 122.414 25.6416 122.958 25.1936C123.502 24.7456 123.774 24.2256 123.774 23.6336C123.774 23.3296 123.686 23.0896 123.51 22.9136C123.35 22.7216 123.126 22.6256 122.838 22.6256ZM131.324 22.5536C131.292 23.3536 131.276 23.9776 131.276 24.4256C131.276 25.5776 131.332 26.4816 131.444 27.1376C131.572 27.7776 131.772 28.2416 132.044 28.5296C132.332 28.8016 132.724 28.9376 133.22 28.9376C133.476 28.9376 133.78 28.8576 134.132 28.6976C134.484 28.5376 134.804 28.3296 135.092 28.0736C135.268 27.9136 135.444 27.8336 135.62 27.8336C135.812 27.8336 135.964 27.9456 136.076 28.1696C136.204 28.3776 136.268 28.6336 136.268 28.9376C136.268 29.2416 136.204 29.5376 136.076 29.8256C135.964 30.1136 135.788 30.3536 135.548 30.5456C134.716 31.2336 133.772 31.5776 132.716 31.5776C131.196 31.5776 130.084 30.9456 129.38 29.6816C128.676 28.4016 128.324 26.7376 128.324 24.6896C128.324 23.9856 128.348 23.2736 128.396 22.5536H127.46C126.98 22.5536 126.652 22.4656 126.476 22.2896C126.316 22.1136 126.236 21.8336 126.236 21.4496C126.236 20.5536 126.596 20.1056 127.316 20.1056H128.684C128.956 18.3456 129.372 16.7376 129.932 15.2816C130.492 13.8256 131.164 12.6656 131.948 11.8016C132.748 10.9376 133.604 10.5056 134.516 10.5056C135.188 10.5056 135.716 10.8016 136.1 11.3936C136.484 11.9856 136.676 12.7296 136.676 13.6256C136.676 16.1056 135.636 18.2656 133.556 20.1056H136.244C136.5 20.1056 136.684 20.1616 136.796 20.2736C136.908 20.3856 136.964 20.5936 136.964 20.8976C136.964 22.0016 136.06 22.5536 134.252 22.5536H131.324ZM133.868 12.8096C133.628 12.8096 133.356 13.1136 133.052 13.7216C132.764 14.3136 132.484 15.1456 132.212 16.2176C131.956 17.2736 131.74 18.4496 131.564 19.7456C132.508 18.9296 133.212 18.0176 133.676 17.0096C134.156 15.9856 134.396 15.0576 134.396 14.2256C134.396 13.2816 134.22 12.8096 133.868 12.8096ZM147.565 31.5776C146.973 31.5776 146.549 31.4496 146.293 31.1936C146.037 30.9216 145.909 30.4176 145.909 29.6816C145.909 29.1856 145.957 28.5856 146.053 27.8816C146.149 27.1776 146.317 26.1136 146.557 24.6896C146.589 24.4976 146.717 23.7216 146.941 22.3616C147.165 20.9856 147.365 19.5456 147.541 18.0416C147.701 16.7616 147.781 15.8016 147.781 15.1616C147.781 14.4416 147.517 14.0816 146.989 14.0816C146.589 14.0816 146.085 14.2976 145.477 14.7296C144.885 15.1456 144.245 15.8176 143.557 16.7456C143.333 17.0496 143.085 17.2016 142.813 17.2016C142.589 17.2016 142.389 17.0976 142.213 16.8896C142.053 16.6656 141.973 16.4176 141.973 16.1456C141.973 15.8736 142.021 15.6176 142.117 15.3776C142.213 15.1216 142.389 14.8176 142.645 14.4656C143.429 13.3936 144.301 12.5696 145.261 11.9936C146.221 11.4016 147.229 11.1056 148.285 11.1056C149.165 11.1056 149.821 11.3776 150.253 11.9216C150.701 12.4656 150.925 13.2576 150.925 14.2976C150.925 15.2256 150.797 16.5696 150.541 18.3296C151.341 15.9616 152.357 14.1696 153.589 12.9536C154.821 11.7216 156.269 11.1056 157.933 11.1056C159.245 11.1056 160.229 11.4816 160.885 12.2336C161.557 12.9696 161.893 13.9616 161.893 15.2096C161.893 15.9136 161.789 16.7696 161.581 17.7776L160.117 24.6416C159.957 25.4416 159.877 26.1296 159.877 26.7056C159.877 27.3776 160.029 27.8816 160.333 28.2176C160.653 28.5536 161.093 28.7216 161.653 28.7216C162.181 28.7216 162.693 28.5456 163.189 28.1936C163.701 27.8416 164.301 27.2576 164.989 26.4416C165.181 26.2176 165.397 26.1056 165.637 26.1056C165.845 26.1056 166.005 26.2016 166.117 26.3936C166.245 26.5856 166.309 26.8496 166.309 27.1856C166.309 27.8096 166.157 28.3056 165.853 28.6736C165.021 29.6816 164.197 30.4176 163.381 30.8816C162.565 31.3456 161.709 31.5776 160.813 31.5776C159.453 31.5776 158.389 31.1776 157.621 30.3776C156.853 29.5616 156.469 28.4736 156.469 27.1136C156.469 26.5856 156.509 26.0096 156.589 25.3856C156.685 24.7616 156.837 23.9696 157.045 23.0096L158.005 18.6176C158.037 18.4736 158.093 18.2176 158.173 17.8496C158.253 17.4816 158.317 17.1376 158.365 16.8176C158.413 16.4816 158.437 16.1536 158.437 15.8336C158.437 15.3216 158.293 14.9136 158.005 14.6096C157.717 14.3056 157.309 14.1536 156.781 14.1536C155.821 14.1536 154.861 14.6656 153.901 15.6896C152.941 16.7136 152.053 18.3696 151.237 20.6576C150.421 22.9296 149.781 25.8416 149.317 29.3936C149.205 30.2096 149.037 30.7776 148.813 31.0976C148.605 31.4176 148.189 31.5776 147.565 31.5776ZM167.072 31.5776C166.08 31.5776 165.288 31.2176 164.696 30.4976C164.104 29.7776 163.808 28.8336 163.808 27.6656C163.808 26.3856 164.104 25.1776 164.696 24.0416C165.288 22.8896 166.072 21.9696 167.048 21.2816C168.04 20.5776 169.088 20.2256 170.192 20.2256C170.544 20.2256 170.776 20.2976 170.888 20.4416C171.016 20.5696 171.12 20.8096 171.2 21.1616C171.536 21.0976 171.888 21.0656 172.256 21.0656C173.04 21.0656 173.432 21.3456 173.432 21.9056C173.432 22.2416 173.312 23.0416 173.072 24.3056C172.704 26.1456 172.52 27.4256 172.52 28.1456C172.52 28.3856 172.576 28.5776 172.688 28.7216C172.816 28.8656 172.976 28.9376 173.168 28.9376C173.472 28.9376 173.84 28.7456 174.272 28.3616C174.704 27.9616 175.288 27.3216 176.024 26.4416C176.216 26.2176 176.432 26.1056 176.672 26.1056C176.88 26.1056 177.04 26.2016 177.152 26.3936C177.28 26.5856 177.344 26.8496 177.344 27.1856C177.344 27.8256 177.192 28.3216 176.888 28.6736C176.232 29.4896 175.536 30.1776 174.8 30.7376C174.064 31.2976 173.352 31.5776 172.664 31.5776C172.136 31.5776 171.648 31.4016 171.2 31.0496C170.768 30.6816 170.44 30.1856 170.216 29.5616C169.384 30.9056 168.336 31.5776 167.072 31.5776ZM167.936 29.1536C168.288 29.1536 168.624 28.9456 168.944 28.5296C169.264 28.1136 169.496 27.5616 169.64 26.8736L170.528 22.4576C169.856 22.4736 169.232 22.7296 168.656 23.2256C168.096 23.7056 167.648 24.3456 167.312 25.1456C166.976 25.9456 166.808 26.7936 166.808 27.6896C166.808 28.1856 166.904 28.5536 167.096 28.7936C167.304 29.0336 167.584 29.1536 167.936 29.1536ZM176.858 31.5776C176.25 31.5776 175.818 31.2576 175.562 30.6176C175.322 29.9776 175.202 28.9536 175.202 27.5456C175.202 25.4656 175.498 23.4896 176.09 21.6176C176.234 21.1536 176.466 20.8176 176.786 20.6096C177.122 20.3856 177.586 20.2736 178.178 20.2736C178.498 20.2736 178.722 20.3136 178.85 20.3936C178.978 20.4736 179.042 20.6256 179.042 20.8496C179.042 21.1056 178.922 21.6816 178.682 22.5776C178.522 23.2176 178.394 23.7776 178.298 24.2576C178.202 24.7376 178.122 25.3296 178.058 26.0336C178.586 24.6576 179.178 23.5376 179.834 22.6736C180.49 21.8096 181.13 21.1936 181.754 20.8256C182.394 20.4576 182.978 20.2736 183.506 20.2736C184.546 20.2736 185.066 20.7936 185.066 21.8336C185.066 22.4576 184.89 23.5856 184.538 25.2176C184.234 26.6096 184.082 27.5296 184.082 27.9776C184.082 28.6176 184.314 28.9376 184.778 28.9376C185.098 28.9376 185.474 28.7456 185.906 28.3616C186.354 27.9616 186.946 27.3216 187.682 26.4416C187.874 26.2176 188.09 26.1056 188.33 26.1056C188.538 26.1056 188.698 26.2016 188.81 26.3936C188.938 26.5856 189.002 26.8496 189.002 27.1856C189.002 27.8256 188.85 28.3216 188.546 28.6736C187.858 29.5216 187.114 30.2176 186.314 30.7616C185.53 31.3056 184.634 31.5776 183.626 31.5776C182.81 31.5776 182.194 31.3456 181.778 30.8816C181.362 30.4016 181.154 29.7136 181.154 28.8176C181.154 28.3696 181.266 27.5696 181.49 26.4176C181.698 25.4096 181.802 24.7136 181.802 24.3296C181.802 24.0736 181.714 23.9456 181.538 23.9456C181.33 23.9456 181.034 24.2176 180.65 24.7616C180.282 25.2896 179.898 25.9936 179.498 26.8736C179.114 27.7536 178.802 28.6816 178.562 29.6576C178.386 30.4096 178.178 30.9216 177.938 31.1936C177.714 31.4496 177.354 31.5776 176.858 31.5776ZM188.524 31.5776C187.916 31.5776 187.484 31.2576 187.228 30.6176C186.988 29.9776 186.868 28.9536 186.868 27.5456C186.868 25.4656 187.164 23.4896 187.756 21.6176C187.9 21.1536 188.132 20.8176 188.452 20.6096C188.788 20.3856 189.252 20.2736 189.844 20.2736C190.164 20.2736 190.388 20.3136 190.516 20.3936C190.644 20.4736 190.708 20.6256 190.708 20.8496C190.708 21.1056 190.588 21.6816 190.348 22.5776C190.188 23.2176 190.06 23.7776 189.964 24.2576C189.868 24.7376 189.788 25.3296 189.724 26.0336C190.252 24.6576 190.844 23.5376 191.5 22.6736C192.156 21.8096 192.796 21.1936 193.42 20.8256C194.06 20.4576 194.644 20.2736 195.172 20.2736C196.212 20.2736 196.732 20.7936 196.732 21.8336C196.732 22.4576 196.556 23.5856 196.204 25.2176C195.9 26.6096 195.748 27.5296 195.748 27.9776C195.748 28.6176 195.98 28.9376 196.444 28.9376C196.764 28.9376 197.14 28.7456 197.572 28.3616C198.02 27.9616 198.612 27.3216 199.348 26.4416C199.54 26.2176 199.756 26.1056 199.996 26.1056C200.204 26.1056 200.364 26.2016 200.476 26.3936C200.604 26.5856 200.668 26.8496 200.668 27.1856C200.668 27.8256 200.516 28.3216 200.212 28.6736C199.524 29.5216 198.78 30.2176 197.98 30.7616C197.196 31.3056 196.3 31.5776 195.292 31.5776C194.476 31.5776 193.86 31.3456 193.444 30.8816C193.028 30.4016 192.82 29.7136 192.82 28.8176C192.82 28.3696 192.932 27.5696 193.156 26.4176C193.364 25.4096 193.468 24.7136 193.468 24.3296C193.468 24.0736 193.38 23.9456 193.204 23.9456C192.996 23.9456 192.7 24.2176 192.316 24.7616C191.948 25.2896 191.564 25.9936 191.164 26.8736C190.78 27.7536 190.468 28.6816 190.228 29.6576C190.052 30.4096 189.844 30.9216 189.604 31.1936C189.38 31.4496 189.02 31.5776 188.524 31.5776ZM206.886 20.2736C207.254 20.2736 207.51 20.3216 207.654 20.4176C207.798 20.5136 207.87 20.6736 207.87 20.8976C207.87 21.2816 207.662 22.6496 207.246 25.0016C206.878 27.2576 206.662 28.5936 206.598 29.0096C206.006 33.1216 205.19 36.3776 204.15 38.7776C203.11 41.1776 201.726 42.3776 199.998 42.3776C199.182 42.3776 198.518 42.1216 198.006 41.6096C197.494 41.1136 197.238 40.4576 197.238 39.6416C197.238 38.8896 197.406 38.1216 197.742 37.3376C198.094 36.5536 198.734 35.6496 199.662 34.6256C200.606 33.6176 201.934 32.4576 203.646 31.1456L203.718 30.5936C203.83 30.0016 203.958 29.1536 204.102 28.0496C203.782 29.2016 203.334 30.0816 202.758 30.6896C202.182 31.2816 201.574 31.5776 200.934 31.5776C200.214 31.5776 199.622 31.2496 199.158 30.5936C198.71 29.9216 198.486 29.0896 198.486 28.0976C198.486 26.8976 198.566 25.8016 198.726 24.8096C198.886 23.8016 199.15 22.7376 199.518 21.6176C199.678 21.1376 199.902 20.7936 200.19 20.5856C200.478 20.3776 200.934 20.2736 201.558 20.2736C201.91 20.2736 202.15 20.3296 202.278 20.4416C202.422 20.5536 202.494 20.7216 202.494 20.9456C202.494 21.0736 202.406 21.5056 202.23 22.2416C202.07 22.8336 201.942 23.3696 201.846 23.8496C201.718 24.5056 201.606 25.1376 201.51 25.7456C201.414 26.3376 201.366 26.8256 201.366 27.2096C201.366 27.8176 201.534 28.1216 201.87 28.1216C202.11 28.1216 202.406 27.8816 202.758 27.4016C203.126 26.9216 203.51 26.1936 203.91 25.2176C204.326 24.2416 204.726 23.0416 205.11 21.6176C205.238 21.1376 205.43 20.7936 205.686 20.5856C205.958 20.3776 206.358 20.2736 206.886 20.2736ZM200.262 40.0496C200.662 40.0496 201.11 39.5856 201.606 38.6576C202.102 37.7296 202.598 36.1856 203.094 34.0256C201.862 35.0656 200.966 36.0096 200.406 36.8576C199.862 37.7216 199.59 38.4736 199.59 39.1136C199.59 39.3856 199.638 39.6096 199.734 39.7856C199.846 39.9616 200.022 40.0496 200.262 40.0496Z" fill="white"/>
</svg>
